M48
METRIC,LZ,000.000
;FILE_FORMAT=3:3
;TYPE=PLATED
;Layer: PTH_Through
;EasyEDA v6.5.5, 2022-06-07 12:17:47
;816fe8a47c3545be857c20b100b7e496,0a780afeddf54f0185a1b1f5ac8a31da,10
;Gerber Generator version 0.2
;Holesize 1 = 0.506 mm
T01C0.506
;Holesize 2 = 0.889 mm
T02C0.889
;Holesize 3 = 0.900 mm
T03C0.900
;Holesize 4 = 0.901 mm
T04C0.901
;Holesize 5 = 1.016 mm
T05C1.016
;Holesize 6 = 1.101 mm
T06C1.101
;Holesize 7 = 2.302 mm
T07C2.302
%
G05
G90
T01
X052927Y-016541
T02
X019967Y-019022
X019967Y-012841
X017427Y-012841
X019967Y-010301
X017427Y-010301
X019967Y-007761
X017427Y-007761
X019967Y-002131
X019967Y-004671
X017427Y-002131
X017427Y-004671
X013000Y-007690
X013000Y-010230
X013000Y-012770
X013000Y-015310
T03
X005867Y-010287
X005867Y-012878
X005867Y-014986
X005867Y-008179
X008357Y-008179
X008306Y-014986
T04
X025745Y-018323
X028285Y-018323
X030825Y-018323
X033365Y-018323
X035905Y-018323
X038445Y-018323
X040985Y-018323
X043525Y-018323
X046065Y-018323
X048605Y-018323
X051145Y-018323
X053685Y-018323
X056225Y-018323
X058765Y-018323
X025745Y-010323
X028285Y-010323
X030825Y-010323
X033365Y-010323
X035905Y-010323
X038445Y-010323
X040985Y-010323
X043525Y-010323
X046065Y-010323
X048605Y-010323
X051145Y-010323
X053685Y-010323
X056225Y-010323
X058765Y-010323
T05
X025602Y-004798
X025602Y-002258
X028142Y-004798
X028142Y-002258
X030682Y-004798
X030682Y-002258
X033222Y-004798
X033222Y-002258
X035762Y-004798
X035762Y-002258
X038302Y-004798
X038302Y-002258
X040842Y-004798
X040842Y-002258
X043382Y-004798
X043382Y-002258
X045922Y-004798
X045922Y-002258
X048462Y-004798
X048462Y-002258
X051002Y-004798
X051002Y-002258
X053542Y-004798
X053542Y-002258
X056082Y-004798
X056082Y-002258
X058622Y-004798
X058622Y-002258
T06
X017427Y-015931
X019967Y-015931
T07
X002870Y-004775
X002870Y-018339
X002057Y-011582
M30
