G04 Layer: TopSolderMaskLayer*
G04 EasyEDA v6.5.5, 2022-06-07 12:17:47*
G04 816fe8a47c3545be857c20b100b7e496,0a780afeddf54f0185a1b1f5ac8a31da,10*
G04 Gerber Generator version 0.2*
G04 Scale: 100 percent, Rotated: No, Reflected: No *
G04 Dimensions in millimeters *
G04 leading zeros omitted , absolute positions ,4 integer and 5 decimal *
%FSLAX45Y45*%
%MOMM*%

%ADD27C,1.8016*%
%ADD29C,1.6764*%
%ADD32C,1.6016*%
%ADD33C,3.6017*%

%LPD*%
G36*
X1657695Y-1676941D02*
G01*
X1656171Y-1676687D01*
X1654647Y-1675925D01*
X1653631Y-1674909D01*
X1652869Y-1673385D01*
X1652615Y-1671861D01*
X1652523Y-1671828D01*
X1652523Y-1514347D01*
X1652615Y-1514381D01*
X1652869Y-1512857D01*
X1653631Y-1511333D01*
X1654647Y-1510317D01*
X1656171Y-1509555D01*
X1657695Y-1509301D01*
X1657604Y-1509268D01*
X1827784Y-1509268D01*
X1827695Y-1509301D01*
X1829219Y-1509555D01*
X1830743Y-1510317D01*
X1831759Y-1511333D01*
X1832521Y-1512857D01*
X1832775Y-1514381D01*
X1832863Y-1514347D01*
X1832863Y-1671828D01*
X1832775Y-1671861D01*
X1832521Y-1673385D01*
X1831759Y-1674909D01*
X1830743Y-1675925D01*
X1829219Y-1676687D01*
X1827695Y-1676941D01*
X1827784Y-1676907D01*
X1657604Y-1676907D01*
G37*
D27*
G01*
X1996693Y-1593121D03*
G36*
X1917954Y-1986026D02*
G01*
X1917954Y-1985975D01*
X1916429Y-1985721D01*
X1914905Y-1984959D01*
X1913889Y-1983943D01*
X1913128Y-1982419D01*
X1912873Y-1980895D01*
X1912873Y-1823415D01*
X1913128Y-1821891D01*
X1913889Y-1820367D01*
X1914905Y-1819351D01*
X1916429Y-1818589D01*
X1917954Y-1818335D01*
X1917954Y-1818386D01*
X2075434Y-1818386D01*
X2075434Y-1818335D01*
X2076958Y-1818589D01*
X2078481Y-1819351D01*
X2079497Y-1820367D01*
X2080259Y-1821891D01*
X2080513Y-1823415D01*
X2080513Y-1980895D01*
X2080259Y-1982419D01*
X2079497Y-1983943D01*
X2078481Y-1984959D01*
X2076958Y-1985721D01*
X2075434Y-1985975D01*
X2075434Y-1986026D01*
G37*
D29*
G01*
X1996693Y-1284089D03*
G01*
X1742694Y-1284089D03*
G01*
X1996693Y-1030089D03*
G01*
X1742694Y-1030089D03*
G01*
X1996693Y-776089D03*
G36*
X1663954Y-859909D02*
G01*
X1662429Y-859655D01*
X1660905Y-858893D01*
X1659889Y-857877D01*
X1659128Y-856353D01*
X1658873Y-854829D01*
X1658873Y-697349D01*
X1659128Y-695825D01*
X1659889Y-694301D01*
X1660905Y-693285D01*
X1662429Y-692523D01*
X1663954Y-692269D01*
X1663954Y-692150D01*
X1821434Y-692150D01*
X1821434Y-692269D01*
X1822957Y-692523D01*
X1824481Y-693285D01*
X1825497Y-694301D01*
X1826260Y-695825D01*
X1826513Y-697349D01*
X1826513Y-854829D01*
X1826260Y-856353D01*
X1825497Y-857877D01*
X1824481Y-858893D01*
X1822957Y-859655D01*
X1821434Y-859909D01*
X1821434Y-859789D01*
X1663954Y-859789D01*
G37*
G36*
X1917954Y-296926D02*
G01*
X1917948Y-296875D01*
X1916424Y-296621D01*
X1914900Y-295859D01*
X1913884Y-294843D01*
X1913122Y-293319D01*
X1912868Y-291795D01*
X1912873Y-291845D01*
X1912873Y-134365D01*
X1912868Y-134315D01*
X1913122Y-132791D01*
X1913884Y-131267D01*
X1914900Y-130251D01*
X1916424Y-129489D01*
X1917948Y-129235D01*
X1917954Y-129286D01*
X2075434Y-129286D01*
X2075428Y-129235D01*
X2076952Y-129489D01*
X2078476Y-130251D01*
X2079492Y-131267D01*
X2080254Y-132791D01*
X2080508Y-134315D01*
X2080513Y-134365D01*
X2080513Y-291845D01*
X2080508Y-291795D01*
X2080254Y-293319D01*
X2079492Y-294843D01*
X2078476Y-295859D01*
X2076952Y-296621D01*
X2075428Y-296875D01*
X2075434Y-296926D01*
G37*
G01*
X1996688Y-467055D03*
G01*
X1742688Y-213055D03*
G01*
X1742688Y-467055D03*
G36*
X2489456Y-555574D02*
G01*
X2487932Y-555320D01*
X2486408Y-554558D01*
X2485392Y-553542D01*
X2484630Y-552018D01*
X2484376Y-550494D01*
X2484374Y-550418D01*
X2484374Y-408939D01*
X2484376Y-409016D01*
X2484630Y-407492D01*
X2485392Y-405968D01*
X2486408Y-404952D01*
X2487932Y-404190D01*
X2489456Y-403936D01*
X2489454Y-403860D01*
X2630931Y-403860D01*
X2630934Y-403936D01*
X2632458Y-404190D01*
X2633982Y-404952D01*
X2634998Y-405968D01*
X2635760Y-407492D01*
X2636011Y-408939D01*
X2636011Y-550418D01*
X2636014Y-550494D01*
X2635760Y-552018D01*
X2634998Y-553542D01*
X2633982Y-554558D01*
X2632458Y-555320D01*
X2630934Y-555574D01*
X2630931Y-555497D01*
X2489454Y-555497D01*
G37*
G36*
X2489456Y-301574D02*
G01*
X2487932Y-301320D01*
X2486408Y-300558D01*
X2485392Y-299542D01*
X2484630Y-298018D01*
X2484376Y-296494D01*
X2484374Y-296418D01*
X2484374Y-154939D01*
X2484376Y-155016D01*
X2484630Y-153492D01*
X2485392Y-151968D01*
X2486408Y-150952D01*
X2487932Y-150190D01*
X2489456Y-149936D01*
X2489454Y-149860D01*
X2630931Y-149860D01*
X2630934Y-149936D01*
X2632458Y-150190D01*
X2633982Y-150952D01*
X2634998Y-151968D01*
X2635760Y-153492D01*
X2636011Y-154939D01*
X2636011Y-296418D01*
X2636014Y-296494D01*
X2635760Y-298018D01*
X2634998Y-299542D01*
X2633982Y-300558D01*
X2632458Y-301320D01*
X2630934Y-301574D01*
X2630931Y-301497D01*
X2489454Y-301497D01*
G37*
G36*
X2743456Y-555574D02*
G01*
X2741932Y-555320D01*
X2740408Y-554558D01*
X2739392Y-553542D01*
X2738630Y-552018D01*
X2738376Y-550494D01*
X2738374Y-550418D01*
X2738374Y-408939D01*
X2738376Y-409016D01*
X2738630Y-407492D01*
X2739392Y-405968D01*
X2740408Y-404952D01*
X2741932Y-404190D01*
X2743456Y-403936D01*
X2743454Y-403860D01*
X2884931Y-403860D01*
X2884934Y-403936D01*
X2886458Y-404190D01*
X2887982Y-404952D01*
X2888998Y-405968D01*
X2889760Y-407492D01*
X2890011Y-408939D01*
X2890011Y-550418D01*
X2890014Y-550494D01*
X2889760Y-552018D01*
X2888998Y-553542D01*
X2887982Y-554558D01*
X2886458Y-555320D01*
X2884934Y-555574D01*
X2884931Y-555497D01*
X2743454Y-555497D01*
G37*
G36*
X2743456Y-301574D02*
G01*
X2741932Y-301320D01*
X2740408Y-300558D01*
X2739392Y-299542D01*
X2738630Y-298018D01*
X2738376Y-296494D01*
X2738374Y-296418D01*
X2738374Y-154939D01*
X2738376Y-155016D01*
X2738630Y-153492D01*
X2739392Y-151968D01*
X2740408Y-150952D01*
X2741932Y-150190D01*
X2743456Y-149936D01*
X2743454Y-149860D01*
X2884931Y-149860D01*
X2884934Y-149936D01*
X2886458Y-150190D01*
X2887982Y-150952D01*
X2888998Y-151968D01*
X2889760Y-153492D01*
X2890011Y-154939D01*
X2890011Y-296418D01*
X2890014Y-296494D01*
X2889760Y-298018D01*
X2888998Y-299542D01*
X2887982Y-300558D01*
X2886458Y-301320D01*
X2884934Y-301574D01*
X2884931Y-301497D01*
X2743454Y-301497D01*
G37*
G36*
X2997456Y-555574D02*
G01*
X2995932Y-555320D01*
X2994408Y-554558D01*
X2993392Y-553542D01*
X2992630Y-552018D01*
X2992376Y-550494D01*
X2992374Y-550418D01*
X2992374Y-408939D01*
X2992376Y-409016D01*
X2992630Y-407492D01*
X2993392Y-405968D01*
X2994408Y-404952D01*
X2995932Y-404190D01*
X2997456Y-403936D01*
X2997454Y-403860D01*
X3138931Y-403860D01*
X3138934Y-403936D01*
X3140458Y-404190D01*
X3141982Y-404952D01*
X3142998Y-405968D01*
X3143760Y-407492D01*
X3144011Y-408939D01*
X3144011Y-550418D01*
X3144014Y-550494D01*
X3143760Y-552018D01*
X3142998Y-553542D01*
X3141982Y-554558D01*
X3140458Y-555320D01*
X3138934Y-555574D01*
X3138931Y-555497D01*
X2997454Y-555497D01*
G37*
G36*
X2997456Y-301574D02*
G01*
X2995932Y-301320D01*
X2994408Y-300558D01*
X2993392Y-299542D01*
X2992630Y-298018D01*
X2992376Y-296494D01*
X2992374Y-296418D01*
X2992374Y-154939D01*
X2992376Y-155016D01*
X2992630Y-153492D01*
X2993392Y-151968D01*
X2994408Y-150952D01*
X2995932Y-150190D01*
X2997456Y-149936D01*
X2997454Y-149860D01*
X3138931Y-149860D01*
X3138934Y-149936D01*
X3140458Y-150190D01*
X3141982Y-150952D01*
X3142998Y-151968D01*
X3143760Y-153492D01*
X3144011Y-154939D01*
X3144011Y-296418D01*
X3144014Y-296494D01*
X3143760Y-298018D01*
X3142998Y-299542D01*
X3141982Y-300558D01*
X3140458Y-301320D01*
X3138934Y-301574D01*
X3138931Y-301497D01*
X2997454Y-301497D01*
G37*
G36*
X3251456Y-555574D02*
G01*
X3249932Y-555320D01*
X3248408Y-554558D01*
X3247392Y-553542D01*
X3246630Y-552018D01*
X3246376Y-550494D01*
X3246374Y-550418D01*
X3246374Y-408939D01*
X3246376Y-409016D01*
X3246630Y-407492D01*
X3247392Y-405968D01*
X3248408Y-404952D01*
X3249932Y-404190D01*
X3251456Y-403936D01*
X3251454Y-403860D01*
X3392931Y-403860D01*
X3392934Y-403936D01*
X3394458Y-404190D01*
X3395982Y-404952D01*
X3396998Y-405968D01*
X3397760Y-407492D01*
X3398011Y-408939D01*
X3398011Y-550418D01*
X3398014Y-550494D01*
X3397760Y-552018D01*
X3396998Y-553542D01*
X3395982Y-554558D01*
X3394458Y-555320D01*
X3392934Y-555574D01*
X3392931Y-555497D01*
X3251454Y-555497D01*
G37*
G36*
X3251456Y-301574D02*
G01*
X3249932Y-301320D01*
X3248408Y-300558D01*
X3247392Y-299542D01*
X3246630Y-298018D01*
X3246376Y-296494D01*
X3246374Y-296418D01*
X3246374Y-154939D01*
X3246376Y-155016D01*
X3246630Y-153492D01*
X3247392Y-151968D01*
X3248408Y-150952D01*
X3249932Y-150190D01*
X3251456Y-149936D01*
X3251454Y-149860D01*
X3392931Y-149860D01*
X3392934Y-149936D01*
X3394458Y-150190D01*
X3395982Y-150952D01*
X3396998Y-151968D01*
X3397760Y-153492D01*
X3398011Y-154939D01*
X3398011Y-296418D01*
X3398014Y-296494D01*
X3397760Y-298018D01*
X3396998Y-299542D01*
X3395982Y-300558D01*
X3394458Y-301320D01*
X3392934Y-301574D01*
X3392931Y-301497D01*
X3251454Y-301497D01*
G37*
G36*
X3505456Y-555574D02*
G01*
X3503932Y-555320D01*
X3502408Y-554558D01*
X3501392Y-553542D01*
X3500630Y-552018D01*
X3500376Y-550494D01*
X3500374Y-550418D01*
X3500374Y-408939D01*
X3500376Y-409016D01*
X3500630Y-407492D01*
X3501392Y-405968D01*
X3502408Y-404952D01*
X3503932Y-404190D01*
X3505456Y-403936D01*
X3505454Y-403860D01*
X3646931Y-403860D01*
X3646934Y-403936D01*
X3648458Y-404190D01*
X3649982Y-404952D01*
X3650998Y-405968D01*
X3651760Y-407492D01*
X3652011Y-408939D01*
X3652011Y-550418D01*
X3652014Y-550494D01*
X3651760Y-552018D01*
X3650998Y-553542D01*
X3649982Y-554558D01*
X3648458Y-555320D01*
X3646934Y-555574D01*
X3646931Y-555497D01*
X3505454Y-555497D01*
G37*
G36*
X3505456Y-301574D02*
G01*
X3503932Y-301320D01*
X3502408Y-300558D01*
X3501392Y-299542D01*
X3500630Y-298018D01*
X3500376Y-296494D01*
X3500374Y-296418D01*
X3500374Y-154939D01*
X3500376Y-155016D01*
X3500630Y-153492D01*
X3501392Y-151968D01*
X3502408Y-150952D01*
X3503932Y-150190D01*
X3505456Y-149936D01*
X3505454Y-149860D01*
X3646931Y-149860D01*
X3646934Y-149936D01*
X3648458Y-150190D01*
X3649982Y-150952D01*
X3650998Y-151968D01*
X3651760Y-153492D01*
X3652011Y-154939D01*
X3652011Y-296418D01*
X3652014Y-296494D01*
X3651760Y-298018D01*
X3650998Y-299542D01*
X3649982Y-300558D01*
X3648458Y-301320D01*
X3646934Y-301574D01*
X3646931Y-301497D01*
X3505454Y-301497D01*
G37*
G36*
X3759456Y-555574D02*
G01*
X3757932Y-555320D01*
X3756408Y-554558D01*
X3755392Y-553542D01*
X3754630Y-552018D01*
X3754376Y-550494D01*
X3754374Y-550418D01*
X3754374Y-408939D01*
X3754376Y-409016D01*
X3754630Y-407492D01*
X3755392Y-405968D01*
X3756408Y-404952D01*
X3757932Y-404190D01*
X3759456Y-403936D01*
X3759454Y-403860D01*
X3900931Y-403860D01*
X3900934Y-403936D01*
X3902458Y-404190D01*
X3903982Y-404952D01*
X3904998Y-405968D01*
X3905760Y-407492D01*
X3906011Y-408939D01*
X3906011Y-550418D01*
X3906014Y-550494D01*
X3905760Y-552018D01*
X3904998Y-553542D01*
X3903982Y-554558D01*
X3902458Y-555320D01*
X3900934Y-555574D01*
X3900931Y-555497D01*
X3759454Y-555497D01*
G37*
G36*
X3759456Y-301574D02*
G01*
X3757932Y-301320D01*
X3756408Y-300558D01*
X3755392Y-299542D01*
X3754630Y-298018D01*
X3754376Y-296494D01*
X3754374Y-296418D01*
X3754374Y-154939D01*
X3754376Y-155016D01*
X3754630Y-153492D01*
X3755392Y-151968D01*
X3756408Y-150952D01*
X3757932Y-150190D01*
X3759456Y-149936D01*
X3759454Y-149860D01*
X3900931Y-149860D01*
X3900934Y-149936D01*
X3902458Y-150190D01*
X3903982Y-150952D01*
X3904998Y-151968D01*
X3905760Y-153492D01*
X3906011Y-154939D01*
X3906011Y-296418D01*
X3906014Y-296494D01*
X3905760Y-298018D01*
X3904998Y-299542D01*
X3903982Y-300558D01*
X3902458Y-301320D01*
X3900934Y-301574D01*
X3900931Y-301497D01*
X3759454Y-301497D01*
G37*
G36*
X4013456Y-555574D02*
G01*
X4011932Y-555320D01*
X4010408Y-554558D01*
X4009392Y-553542D01*
X4008630Y-552018D01*
X4008376Y-550494D01*
X4008374Y-550418D01*
X4008374Y-408939D01*
X4008376Y-409016D01*
X4008630Y-407492D01*
X4009392Y-405968D01*
X4010408Y-404952D01*
X4011932Y-404190D01*
X4013456Y-403936D01*
X4013454Y-403860D01*
X4154931Y-403860D01*
X4154934Y-403936D01*
X4156458Y-404190D01*
X4157982Y-404952D01*
X4158998Y-405968D01*
X4159760Y-407492D01*
X4160011Y-408939D01*
X4160011Y-550418D01*
X4160014Y-550494D01*
X4159760Y-552018D01*
X4158998Y-553542D01*
X4157982Y-554558D01*
X4156458Y-555320D01*
X4154934Y-555574D01*
X4154931Y-555497D01*
X4013454Y-555497D01*
G37*
G36*
X4013456Y-301574D02*
G01*
X4011932Y-301320D01*
X4010408Y-300558D01*
X4009392Y-299542D01*
X4008630Y-298018D01*
X4008376Y-296494D01*
X4008374Y-296418D01*
X4008374Y-154939D01*
X4008376Y-155016D01*
X4008630Y-153492D01*
X4009392Y-151968D01*
X4010408Y-150952D01*
X4011932Y-150190D01*
X4013456Y-149936D01*
X4013454Y-149860D01*
X4154931Y-149860D01*
X4154934Y-149936D01*
X4156458Y-150190D01*
X4157982Y-150952D01*
X4158998Y-151968D01*
X4159760Y-153492D01*
X4160011Y-154939D01*
X4160011Y-296418D01*
X4160014Y-296494D01*
X4159760Y-298018D01*
X4158998Y-299542D01*
X4157982Y-300558D01*
X4156458Y-301320D01*
X4154934Y-301574D01*
X4154931Y-301497D01*
X4013454Y-301497D01*
G37*
G36*
X4267456Y-555574D02*
G01*
X4265932Y-555320D01*
X4264408Y-554558D01*
X4263392Y-553542D01*
X4262630Y-552018D01*
X4262376Y-550494D01*
X4262374Y-550418D01*
X4262374Y-408939D01*
X4262376Y-409016D01*
X4262630Y-407492D01*
X4263392Y-405968D01*
X4264408Y-404952D01*
X4265932Y-404190D01*
X4267456Y-403936D01*
X4267454Y-403860D01*
X4408931Y-403860D01*
X4408934Y-403936D01*
X4410458Y-404190D01*
X4411982Y-404952D01*
X4412998Y-405968D01*
X4413760Y-407492D01*
X4414011Y-408939D01*
X4414011Y-550418D01*
X4414014Y-550494D01*
X4413760Y-552018D01*
X4412998Y-553542D01*
X4411982Y-554558D01*
X4410458Y-555320D01*
X4408934Y-555574D01*
X4408931Y-555497D01*
X4267454Y-555497D01*
G37*
G36*
X4267456Y-301574D02*
G01*
X4265932Y-301320D01*
X4264408Y-300558D01*
X4263392Y-299542D01*
X4262630Y-298018D01*
X4262376Y-296494D01*
X4262374Y-296418D01*
X4262374Y-154939D01*
X4262376Y-155016D01*
X4262630Y-153492D01*
X4263392Y-151968D01*
X4264408Y-150952D01*
X4265932Y-150190D01*
X4267456Y-149936D01*
X4267454Y-149860D01*
X4408931Y-149860D01*
X4408934Y-149936D01*
X4410458Y-150190D01*
X4411982Y-150952D01*
X4412998Y-151968D01*
X4413760Y-153492D01*
X4414011Y-154939D01*
X4414011Y-296418D01*
X4414014Y-296494D01*
X4413760Y-298018D01*
X4412998Y-299542D01*
X4411982Y-300558D01*
X4410458Y-301320D01*
X4408934Y-301574D01*
X4408931Y-301497D01*
X4267454Y-301497D01*
G37*
G36*
X4521456Y-555574D02*
G01*
X4519932Y-555320D01*
X4518408Y-554558D01*
X4517392Y-553542D01*
X4516630Y-552018D01*
X4516376Y-550494D01*
X4516374Y-550418D01*
X4516374Y-408939D01*
X4516376Y-409016D01*
X4516630Y-407492D01*
X4517392Y-405968D01*
X4518408Y-404952D01*
X4519932Y-404190D01*
X4521456Y-403936D01*
X4521454Y-403860D01*
X4662931Y-403860D01*
X4662934Y-403936D01*
X4664458Y-404190D01*
X4665982Y-404952D01*
X4666998Y-405968D01*
X4667760Y-407492D01*
X4668011Y-408939D01*
X4668011Y-550418D01*
X4668014Y-550494D01*
X4667760Y-552018D01*
X4666998Y-553542D01*
X4665982Y-554558D01*
X4664458Y-555320D01*
X4662934Y-555574D01*
X4662931Y-555497D01*
X4521454Y-555497D01*
G37*
G36*
X4521456Y-301574D02*
G01*
X4519932Y-301320D01*
X4518408Y-300558D01*
X4517392Y-299542D01*
X4516630Y-298018D01*
X4516376Y-296494D01*
X4516374Y-296418D01*
X4516374Y-154939D01*
X4516376Y-155016D01*
X4516630Y-153492D01*
X4517392Y-151968D01*
X4518408Y-150952D01*
X4519932Y-150190D01*
X4521456Y-149936D01*
X4521454Y-149860D01*
X4662931Y-149860D01*
X4662934Y-149936D01*
X4664458Y-150190D01*
X4665982Y-150952D01*
X4666998Y-151968D01*
X4667760Y-153492D01*
X4668011Y-154939D01*
X4668011Y-296418D01*
X4668014Y-296494D01*
X4667760Y-298018D01*
X4666998Y-299542D01*
X4665982Y-300558D01*
X4664458Y-301320D01*
X4662934Y-301574D01*
X4662931Y-301497D01*
X4521454Y-301497D01*
G37*
G36*
X4775456Y-555574D02*
G01*
X4773932Y-555320D01*
X4772408Y-554558D01*
X4771392Y-553542D01*
X4770630Y-552018D01*
X4770376Y-550494D01*
X4770374Y-550418D01*
X4770374Y-408939D01*
X4770376Y-409016D01*
X4770630Y-407492D01*
X4771392Y-405968D01*
X4772408Y-404952D01*
X4773932Y-404190D01*
X4775456Y-403936D01*
X4775454Y-403860D01*
X4916931Y-403860D01*
X4916934Y-403936D01*
X4918458Y-404190D01*
X4919982Y-404952D01*
X4920998Y-405968D01*
X4921760Y-407492D01*
X4922011Y-408939D01*
X4922011Y-550418D01*
X4922014Y-550494D01*
X4921760Y-552018D01*
X4920998Y-553542D01*
X4919982Y-554558D01*
X4918458Y-555320D01*
X4916934Y-555574D01*
X4916931Y-555497D01*
X4775454Y-555497D01*
G37*
G36*
X4775456Y-301574D02*
G01*
X4773932Y-301320D01*
X4772408Y-300558D01*
X4771392Y-299542D01*
X4770630Y-298018D01*
X4770376Y-296494D01*
X4770374Y-296418D01*
X4770374Y-154939D01*
X4770376Y-155016D01*
X4770630Y-153492D01*
X4771392Y-151968D01*
X4772408Y-150952D01*
X4773932Y-150190D01*
X4775456Y-149936D01*
X4775454Y-149860D01*
X4916931Y-149860D01*
X4916934Y-149936D01*
X4918458Y-150190D01*
X4919982Y-150952D01*
X4920998Y-151968D01*
X4921760Y-153492D01*
X4922011Y-154939D01*
X4922011Y-296418D01*
X4922014Y-296494D01*
X4921760Y-298018D01*
X4920998Y-299542D01*
X4919982Y-300558D01*
X4918458Y-301320D01*
X4916934Y-301574D01*
X4916931Y-301497D01*
X4775454Y-301497D01*
G37*
G36*
X5029456Y-555574D02*
G01*
X5027932Y-555320D01*
X5026408Y-554558D01*
X5025392Y-553542D01*
X5024630Y-552018D01*
X5024376Y-550494D01*
X5024374Y-550418D01*
X5024374Y-408939D01*
X5024376Y-409016D01*
X5024630Y-407492D01*
X5025392Y-405968D01*
X5026408Y-404952D01*
X5027932Y-404190D01*
X5029456Y-403936D01*
X5029454Y-403860D01*
X5170931Y-403860D01*
X5170934Y-403936D01*
X5172458Y-404190D01*
X5173982Y-404952D01*
X5174998Y-405968D01*
X5175760Y-407492D01*
X5176011Y-408939D01*
X5176011Y-550418D01*
X5176014Y-550494D01*
X5175760Y-552018D01*
X5174998Y-553542D01*
X5173982Y-554558D01*
X5172458Y-555320D01*
X5170934Y-555574D01*
X5170931Y-555497D01*
X5029454Y-555497D01*
G37*
G36*
X5029456Y-301574D02*
G01*
X5027932Y-301320D01*
X5026408Y-300558D01*
X5025392Y-299542D01*
X5024630Y-298018D01*
X5024376Y-296494D01*
X5024374Y-296418D01*
X5024374Y-154939D01*
X5024376Y-155016D01*
X5024630Y-153492D01*
X5025392Y-151968D01*
X5026408Y-150952D01*
X5027932Y-150190D01*
X5029456Y-149936D01*
X5029454Y-149860D01*
X5170931Y-149860D01*
X5170934Y-149936D01*
X5172458Y-150190D01*
X5173982Y-150952D01*
X5174998Y-151968D01*
X5175760Y-153492D01*
X5176011Y-154939D01*
X5176011Y-296418D01*
X5176014Y-296494D01*
X5175760Y-298018D01*
X5174998Y-299542D01*
X5173982Y-300558D01*
X5172458Y-301320D01*
X5170934Y-301574D01*
X5170931Y-301497D01*
X5029454Y-301497D01*
G37*
G36*
X5283456Y-555574D02*
G01*
X5281932Y-555320D01*
X5280408Y-554558D01*
X5279392Y-553542D01*
X5278630Y-552018D01*
X5278376Y-550494D01*
X5278374Y-550418D01*
X5278374Y-408939D01*
X5278376Y-409016D01*
X5278630Y-407492D01*
X5279392Y-405968D01*
X5280408Y-404952D01*
X5281932Y-404190D01*
X5283456Y-403936D01*
X5283454Y-403860D01*
X5424931Y-403860D01*
X5424934Y-403936D01*
X5426458Y-404190D01*
X5427982Y-404952D01*
X5428998Y-405968D01*
X5429760Y-407492D01*
X5430011Y-408939D01*
X5430011Y-550418D01*
X5430014Y-550494D01*
X5429760Y-552018D01*
X5428998Y-553542D01*
X5427982Y-554558D01*
X5426458Y-555320D01*
X5424934Y-555574D01*
X5424931Y-555497D01*
X5283454Y-555497D01*
G37*
G36*
X5283456Y-301574D02*
G01*
X5281932Y-301320D01*
X5280408Y-300558D01*
X5279392Y-299542D01*
X5278630Y-298018D01*
X5278376Y-296494D01*
X5278374Y-296418D01*
X5278374Y-154939D01*
X5278376Y-155016D01*
X5278630Y-153492D01*
X5279392Y-151968D01*
X5280408Y-150952D01*
X5281932Y-150190D01*
X5283456Y-149936D01*
X5283454Y-149860D01*
X5424931Y-149860D01*
X5424934Y-149936D01*
X5426458Y-150190D01*
X5427982Y-150952D01*
X5428998Y-151968D01*
X5429760Y-153492D01*
X5430011Y-154939D01*
X5430011Y-296418D01*
X5430014Y-296494D01*
X5429760Y-298018D01*
X5428998Y-299542D01*
X5427982Y-300558D01*
X5426458Y-301320D01*
X5424934Y-301574D01*
X5424931Y-301497D01*
X5283454Y-301497D01*
G37*
G36*
X5537456Y-555574D02*
G01*
X5535932Y-555320D01*
X5534408Y-554558D01*
X5533392Y-553542D01*
X5532630Y-552018D01*
X5532376Y-550494D01*
X5532374Y-550418D01*
X5532374Y-408939D01*
X5532376Y-409016D01*
X5532630Y-407492D01*
X5533392Y-405968D01*
X5534408Y-404952D01*
X5535932Y-404190D01*
X5537456Y-403936D01*
X5537454Y-403860D01*
X5678931Y-403860D01*
X5678934Y-403936D01*
X5680458Y-404190D01*
X5681982Y-404952D01*
X5682998Y-405968D01*
X5683760Y-407492D01*
X5684011Y-408939D01*
X5684011Y-550418D01*
X5684014Y-550494D01*
X5683760Y-552018D01*
X5682998Y-553542D01*
X5681982Y-554558D01*
X5680458Y-555320D01*
X5678934Y-555574D01*
X5678931Y-555497D01*
X5537454Y-555497D01*
G37*
G36*
X5537456Y-301574D02*
G01*
X5535932Y-301320D01*
X5534408Y-300558D01*
X5533392Y-299542D01*
X5532630Y-298018D01*
X5532376Y-296494D01*
X5532374Y-296418D01*
X5532374Y-154939D01*
X5532376Y-155016D01*
X5532630Y-153492D01*
X5533392Y-151968D01*
X5534408Y-150952D01*
X5535932Y-150190D01*
X5537456Y-149936D01*
X5537454Y-149860D01*
X5678931Y-149860D01*
X5678934Y-149936D01*
X5680458Y-150190D01*
X5681982Y-150952D01*
X5682998Y-151968D01*
X5683760Y-153492D01*
X5684011Y-154939D01*
X5684011Y-296418D01*
X5684014Y-296494D01*
X5683760Y-298018D01*
X5682998Y-299542D01*
X5681982Y-300558D01*
X5680458Y-301320D01*
X5678934Y-301574D01*
X5678931Y-301497D01*
X5537454Y-301497D01*
G37*
G36*
X5791456Y-555574D02*
G01*
X5789932Y-555320D01*
X5788408Y-554558D01*
X5787392Y-553542D01*
X5786630Y-552018D01*
X5786376Y-550494D01*
X5786374Y-550418D01*
X5786374Y-408939D01*
X5786376Y-409016D01*
X5786630Y-407492D01*
X5787392Y-405968D01*
X5788408Y-404952D01*
X5789932Y-404190D01*
X5791456Y-403936D01*
X5791454Y-403860D01*
X5932931Y-403860D01*
X5932934Y-403936D01*
X5934458Y-404190D01*
X5935982Y-404952D01*
X5936998Y-405968D01*
X5937760Y-407492D01*
X5938011Y-408939D01*
X5938011Y-550418D01*
X5938014Y-550494D01*
X5937760Y-552018D01*
X5936998Y-553542D01*
X5935982Y-554558D01*
X5934458Y-555320D01*
X5932934Y-555574D01*
X5932931Y-555497D01*
X5791454Y-555497D01*
G37*
G36*
X5791456Y-301574D02*
G01*
X5789932Y-301320D01*
X5788408Y-300558D01*
X5787392Y-299542D01*
X5786630Y-298018D01*
X5786376Y-296494D01*
X5786374Y-296418D01*
X5786374Y-154939D01*
X5786376Y-155016D01*
X5786630Y-153492D01*
X5787392Y-151968D01*
X5788408Y-150952D01*
X5789932Y-150190D01*
X5791456Y-149936D01*
X5791454Y-149860D01*
X5932931Y-149860D01*
X5932934Y-149936D01*
X5934458Y-150190D01*
X5935982Y-150952D01*
X5936998Y-151968D01*
X5937760Y-153492D01*
X5938011Y-154939D01*
X5938011Y-296418D01*
X5938014Y-296494D01*
X5937760Y-298018D01*
X5936998Y-299542D01*
X5935982Y-300558D01*
X5934458Y-301320D01*
X5932934Y-301574D01*
X5932931Y-301497D01*
X5791454Y-301497D01*
G37*
G36*
X2499613Y-1912365D02*
G01*
X2499542Y-1912335D01*
X2498018Y-1912081D01*
X2496494Y-1911319D01*
X2495478Y-1910303D01*
X2494716Y-1908779D01*
X2494462Y-1907255D01*
X2494534Y-1907286D01*
X2494534Y-1757171D01*
X2494462Y-1757253D01*
X2494716Y-1755729D01*
X2495478Y-1754205D01*
X2496494Y-1753189D01*
X2498018Y-1752427D01*
X2499542Y-1752173D01*
X2499613Y-1752092D01*
X2649474Y-1752092D01*
X2649545Y-1752173D01*
X2651069Y-1752427D01*
X2652593Y-1753189D01*
X2653609Y-1754205D01*
X2654371Y-1755729D01*
X2654625Y-1757253D01*
X2654554Y-1757171D01*
X2654554Y-1907286D01*
X2654625Y-1907255D01*
X2654371Y-1908779D01*
X2653609Y-1910303D01*
X2652593Y-1911319D01*
X2651069Y-1912081D01*
X2649545Y-1912335D01*
X2649474Y-1912365D01*
G37*
D32*
G01*
X2828556Y-1832254D03*
G01*
X3082556Y-1832254D03*
G01*
X3336556Y-1832254D03*
G01*
X3590556Y-1832254D03*
G01*
X3844556Y-1832254D03*
G01*
X4098556Y-1832254D03*
G01*
X4352556Y-1832254D03*
G01*
X4606556Y-1832254D03*
G01*
X4860556Y-1832254D03*
G01*
X5114556Y-1832254D03*
G01*
X5368556Y-1832254D03*
G01*
X5622556Y-1832254D03*
G01*
X5876556Y-1832254D03*
G01*
X2574556Y-1032255D03*
G01*
X2828556Y-1032255D03*
G01*
X3082556Y-1032255D03*
G01*
X3336556Y-1032255D03*
G01*
X3590556Y-1032255D03*
G01*
X3844556Y-1032255D03*
G01*
X4098556Y-1032255D03*
G01*
X4352556Y-1032255D03*
G01*
X4606556Y-1032255D03*
G01*
X4860556Y-1032255D03*
G01*
X5114556Y-1032255D03*
G01*
X5368556Y-1032255D03*
G01*
X5622556Y-1032255D03*
G01*
X5876556Y-1032255D03*
D33*
G01*
X287020Y-477520D03*
G01*
X287020Y-1833879D03*
G01*
X205739Y-1158239D03*
G36*
X515620Y-1104900D02*
G01*
X514095Y-1104645D01*
X512571Y-1103884D01*
X511555Y-1102868D01*
X510794Y-1101344D01*
X510539Y-1099820D01*
X510539Y-957579D01*
X510794Y-956055D01*
X511555Y-954531D01*
X512571Y-953515D01*
X514095Y-952754D01*
X515620Y-952500D01*
X657860Y-952500D01*
X659384Y-952754D01*
X660907Y-953515D01*
X661923Y-954531D01*
X662686Y-956055D01*
X662939Y-957579D01*
X662939Y-1099820D01*
X662686Y-1101344D01*
X661923Y-1102868D01*
X660907Y-1103884D01*
X659384Y-1104645D01*
X657860Y-1104900D01*
G37*
G36*
X515620Y-1363979D02*
G01*
X514095Y-1363726D01*
X512571Y-1362963D01*
X511555Y-1361947D01*
X510794Y-1360423D01*
X510539Y-1358900D01*
X510539Y-1216660D01*
X510794Y-1215136D01*
X511555Y-1213612D01*
X512571Y-1212595D01*
X514095Y-1211834D01*
X515620Y-1211579D01*
X657860Y-1211579D01*
X659384Y-1211834D01*
X660907Y-1212595D01*
X661923Y-1213612D01*
X662686Y-1215136D01*
X662939Y-1216660D01*
X662939Y-1358900D01*
X662686Y-1360423D01*
X661923Y-1361947D01*
X660907Y-1362963D01*
X659384Y-1363726D01*
X657860Y-1363979D01*
G37*
G36*
X515620Y-1574800D02*
G01*
X514095Y-1574545D01*
X512571Y-1573784D01*
X511555Y-1572768D01*
X510794Y-1571244D01*
X510539Y-1569720D01*
X510539Y-1427479D01*
X510794Y-1425955D01*
X511555Y-1424431D01*
X512571Y-1423415D01*
X514095Y-1422654D01*
X515620Y-1422400D01*
X657860Y-1422400D01*
X659384Y-1422654D01*
X660907Y-1423415D01*
X661923Y-1424431D01*
X662686Y-1425955D01*
X662939Y-1427479D01*
X662939Y-1569720D01*
X662686Y-1571244D01*
X661923Y-1572768D01*
X660907Y-1573784D01*
X659384Y-1574545D01*
X657860Y-1574800D01*
G37*
G36*
X515620Y-894079D02*
G01*
X514095Y-893826D01*
X512571Y-893063D01*
X511555Y-892047D01*
X510794Y-890523D01*
X510539Y-889000D01*
X510539Y-746760D01*
X510794Y-745236D01*
X511555Y-743712D01*
X512571Y-742695D01*
X514095Y-741934D01*
X515620Y-741679D01*
X657860Y-741679D01*
X659384Y-741934D01*
X660907Y-742695D01*
X661923Y-743712D01*
X662686Y-745236D01*
X662939Y-746760D01*
X662939Y-889000D01*
X662686Y-890523D01*
X661923Y-892047D01*
X660907Y-893063D01*
X659384Y-893826D01*
X657860Y-894079D01*
G37*
G36*
X764539Y-894079D02*
G01*
X763015Y-893826D01*
X761492Y-893063D01*
X760476Y-892047D01*
X759713Y-890523D01*
X759460Y-889000D01*
X759460Y-746760D01*
X759713Y-745236D01*
X760476Y-743712D01*
X761492Y-742695D01*
X763015Y-741934D01*
X764539Y-741679D01*
X906779Y-741679D01*
X908304Y-741934D01*
X909828Y-742695D01*
X910844Y-743712D01*
X911605Y-745236D01*
X911860Y-746760D01*
X911860Y-889000D01*
X911605Y-890523D01*
X910844Y-892047D01*
X909828Y-893063D01*
X908304Y-893826D01*
X906779Y-894079D01*
G37*
G36*
X759460Y-1574800D02*
G01*
X757936Y-1574545D01*
X756412Y-1573784D01*
X755395Y-1572768D01*
X754634Y-1571244D01*
X754379Y-1569720D01*
X754379Y-1427479D01*
X754634Y-1425955D01*
X755395Y-1424431D01*
X756412Y-1423415D01*
X757936Y-1422654D01*
X759460Y-1422400D01*
X901700Y-1422400D01*
X903223Y-1422654D01*
X904747Y-1423415D01*
X905763Y-1424431D01*
X906526Y-1425955D01*
X906779Y-1427479D01*
X906779Y-1569720D01*
X906526Y-1571244D01*
X905763Y-1572768D01*
X904747Y-1573784D01*
X903223Y-1574545D01*
X901700Y-1574800D01*
G37*
G36*
X1221231Y-852931D02*
G01*
X1221257Y-852817D01*
X1219733Y-852563D01*
X1218209Y-851801D01*
X1217193Y-850785D01*
X1216431Y-849261D01*
X1216177Y-847737D01*
X1216152Y-847852D01*
X1216152Y-690371D01*
X1216177Y-690257D01*
X1216431Y-688733D01*
X1217193Y-687209D01*
X1218209Y-686193D01*
X1219733Y-685431D01*
X1221257Y-685177D01*
X1221231Y-685292D01*
X1378712Y-685292D01*
X1378737Y-685177D01*
X1380261Y-685431D01*
X1381785Y-686193D01*
X1382801Y-687209D01*
X1383563Y-688733D01*
X1383817Y-690257D01*
X1383792Y-690371D01*
X1383792Y-847852D01*
X1383817Y-847737D01*
X1383563Y-849261D01*
X1382801Y-850785D01*
X1381785Y-851801D01*
X1380261Y-852563D01*
X1378737Y-852817D01*
X1378712Y-852931D01*
G37*
D29*
G01*
X1299997Y-1022997D03*
G01*
X1299997Y-1276997D03*
G01*
X1299997Y-1530997D03*
M02*
