G04 Layer: TopSilkscreenLayer*
G04 EasyEDA v6.5.5, 2022-06-07 12:17:47*
G04 816fe8a47c3545be857c20b100b7e496,0a780afeddf54f0185a1b1f5ac8a31da,10*
G04 Gerber Generator version 0.2*
G04 Scale: 100 percent, Rotated: No, Reflected: No *
G04 Dimensions in millimeters *
G04 leading zeros omitted , absolute positions ,4 integer and 5 decimal *
%FSLAX45Y45*%
%MOMM*%

%ADD10C,0.2540*%
%ADD11C,0.3000*%
%ADD22C,0.2030*%
%ADD23C,0.2032*%
%ADD24C,0.6000*%
%ADD25C,0.1524*%

%LPD*%
D25*
X2281174Y-1644937D02*
G01*
X2281174Y-1561879D01*
X2286508Y-1546131D01*
X2291588Y-1541051D01*
X2302002Y-1535971D01*
X2312415Y-1535971D01*
X2322829Y-1541051D01*
X2328163Y-1546131D01*
X2333243Y-1561879D01*
X2333243Y-1572293D01*
X2246884Y-1624109D02*
G01*
X2236724Y-1629443D01*
X2220975Y-1644937D01*
X2220975Y-1535971D01*
X2281174Y-1953971D02*
G01*
X2281174Y-1870913D01*
X2286508Y-1855165D01*
X2291588Y-1850085D01*
X2302002Y-1845005D01*
X2312415Y-1845005D01*
X2322829Y-1850085D01*
X2328163Y-1855165D01*
X2333243Y-1870913D01*
X2333243Y-1881327D01*
X2241804Y-1928063D02*
G01*
X2241804Y-1933143D01*
X2236724Y-1943557D01*
X2231390Y-1948891D01*
X2220975Y-1953971D01*
X2200147Y-1953971D01*
X2189734Y-1948891D01*
X2184654Y-1943557D01*
X2179574Y-1933143D01*
X2179574Y-1922729D01*
X2184654Y-1912315D01*
X2195068Y-1896821D01*
X2246884Y-1845005D01*
X2174240Y-1845005D01*
X2281174Y-1120005D02*
G01*
X2281174Y-1036947D01*
X2286508Y-1021199D01*
X2291588Y-1016119D01*
X2302002Y-1011039D01*
X2312415Y-1011039D01*
X2322829Y-1016119D01*
X2328163Y-1021199D01*
X2333243Y-1036947D01*
X2333243Y-1047361D01*
X2195068Y-1120005D02*
G01*
X2246884Y-1047361D01*
X2169159Y-1047361D01*
X2195068Y-1120005D02*
G01*
X2195068Y-1011039D01*
X2281168Y-493471D02*
G01*
X2281168Y-410413D01*
X2286502Y-394665D01*
X2291582Y-389585D01*
X2301996Y-384505D01*
X2312410Y-384505D01*
X2322824Y-389585D01*
X2328158Y-394665D01*
X2333238Y-410413D01*
X2333238Y-420827D01*
X2184648Y-493471D02*
G01*
X2236718Y-493471D01*
X2241798Y-446735D01*
X2236718Y-451815D01*
X2220970Y-457149D01*
X2205476Y-457149D01*
X2189728Y-451815D01*
X2179568Y-441655D01*
X2174234Y-425907D01*
X2174234Y-415493D01*
X2179568Y-399999D01*
X2189728Y-389585D01*
X2205476Y-384505D01*
X2220970Y-384505D01*
X2236718Y-389585D01*
X2241798Y-394665D01*
X2246878Y-405079D01*
X2344674Y-277571D02*
G01*
X2344674Y-194513D01*
X2350008Y-178765D01*
X2355088Y-173685D01*
X2365502Y-168605D01*
X2375915Y-168605D01*
X2386329Y-173685D01*
X2391663Y-178765D01*
X2396743Y-194513D01*
X2396743Y-204927D01*
X2310384Y-277571D02*
G01*
X2310384Y-168605D01*
X2310384Y-277571D02*
G01*
X2263647Y-277571D01*
X2248154Y-272491D01*
X2243074Y-267157D01*
X2237740Y-256743D01*
X2237740Y-241249D01*
X2243074Y-230835D01*
X2248154Y-225755D01*
X2263647Y-220421D01*
X2310384Y-220421D01*
X2203450Y-256743D02*
G01*
X2193036Y-262077D01*
X2177541Y-277571D01*
X2177541Y-168605D01*
X4304093Y-925271D02*
G01*
X4304093Y-847293D01*
X4299013Y-831799D01*
X4288599Y-821385D01*
X4272851Y-816305D01*
X4262437Y-816305D01*
X4246943Y-821385D01*
X4236529Y-831799D01*
X4231449Y-847293D01*
X4231449Y-925271D01*
X4191825Y-899363D02*
G01*
X4191825Y-904443D01*
X4186745Y-914857D01*
X4181411Y-920191D01*
X4170997Y-925271D01*
X4150423Y-925271D01*
X4140009Y-920191D01*
X4134675Y-914857D01*
X4129595Y-904443D01*
X4129595Y-894029D01*
X4134675Y-883615D01*
X4145089Y-868121D01*
X4197159Y-816305D01*
X4124261Y-816305D01*
X788415Y-279400D02*
G01*
X679450Y-352044D01*
X788415Y-352044D02*
G01*
X679450Y-279400D01*
X767587Y-386334D02*
G01*
X772921Y-396747D01*
X788415Y-412495D01*
X679450Y-412495D01*
X695197Y-1386839D02*
G01*
X692912Y-1382268D01*
X686054Y-1375410D01*
X734568Y-1375410D01*
X697484Y-1145794D02*
G01*
X695197Y-1145794D01*
X690626Y-1143507D01*
X688339Y-1141221D01*
X686054Y-1136650D01*
X686054Y-1127252D01*
X688339Y-1122679D01*
X690626Y-1120394D01*
X695197Y-1118107D01*
X699770Y-1118107D01*
X704595Y-1120394D01*
X711454Y-1124965D01*
X734568Y-1148079D01*
X734568Y-1115821D01*
X686054Y-1610868D02*
G01*
X686054Y-1585468D01*
X704595Y-1599184D01*
X704595Y-1592326D01*
X706881Y-1587754D01*
X709168Y-1585468D01*
X716026Y-1583181D01*
X720597Y-1583181D01*
X727710Y-1585468D01*
X732281Y-1590039D01*
X734568Y-1596897D01*
X734568Y-1604010D01*
X732281Y-1610868D01*
X729995Y-1613154D01*
X725170Y-1615439D01*
X691134Y-901954D02*
G01*
X691134Y-925068D01*
X711962Y-927354D01*
X709676Y-925068D01*
X707389Y-918210D01*
X707389Y-911097D01*
X709676Y-904239D01*
X714247Y-899668D01*
X721105Y-897381D01*
X725678Y-897381D01*
X732789Y-899668D01*
X737362Y-904239D01*
X739647Y-911097D01*
X739647Y-918210D01*
X737362Y-925068D01*
X735076Y-927354D01*
X730250Y-929639D01*
X941831Y-1595373D02*
G01*
X937260Y-1597660D01*
X934973Y-1604518D01*
X934973Y-1609089D01*
X937260Y-1616202D01*
X944118Y-1620773D01*
X955802Y-1623060D01*
X967231Y-1623060D01*
X976629Y-1620773D01*
X981202Y-1616202D01*
X983487Y-1609089D01*
X983487Y-1606804D01*
X981202Y-1599945D01*
X976629Y-1595373D01*
X969518Y-1593087D01*
X967231Y-1593087D01*
X960373Y-1595373D01*
X955802Y-1599945D01*
X953515Y-1606804D01*
X953515Y-1609089D01*
X955802Y-1616202D01*
X960373Y-1620773D01*
X967231Y-1623060D01*
X940054Y-935989D02*
G01*
X942339Y-942847D01*
X946912Y-945134D01*
X951484Y-945134D01*
X956310Y-942847D01*
X958595Y-938276D01*
X960881Y-928878D01*
X963168Y-922020D01*
X967739Y-917447D01*
X972312Y-915162D01*
X979170Y-915162D01*
X983995Y-917447D01*
X986281Y-919734D01*
X988568Y-926592D01*
X988568Y-935989D01*
X986281Y-942847D01*
X983995Y-945134D01*
X979170Y-947420D01*
X972312Y-947420D01*
X967739Y-945134D01*
X963168Y-940562D01*
X960881Y-933450D01*
X958595Y-924305D01*
X956310Y-919734D01*
X951484Y-917447D01*
X946912Y-917447D01*
X942339Y-919734D01*
X940054Y-926592D01*
X940054Y-935989D01*
X1656613Y-1837067D02*
G01*
X1573555Y-1837067D01*
X1557807Y-1831733D01*
X1552727Y-1826653D01*
X1547647Y-1816239D01*
X1547647Y-1805825D01*
X1552727Y-1795411D01*
X1557807Y-1790077D01*
X1573555Y-1784997D01*
X1583969Y-1784997D01*
X1656613Y-1881517D02*
G01*
X1656613Y-1938667D01*
X1614957Y-1907679D01*
X1614957Y-1923173D01*
X1609877Y-1933587D01*
X1604797Y-1938667D01*
X1589049Y-1944001D01*
X1578635Y-1944001D01*
X1563141Y-1938667D01*
X1552727Y-1928507D01*
X1547647Y-1912759D01*
X1547647Y-1897265D01*
X1552727Y-1881517D01*
X1557807Y-1876437D01*
X1568221Y-1871357D01*
D22*
X2123693Y-1466121D02*
G01*
X1806194Y-1466121D01*
D23*
X2123693Y-1466121D02*
G01*
X2123693Y-1720121D01*
X1615694Y-1720121D01*
X1615694Y-1466121D01*
X1806194Y-1466121D01*
X1869694Y-1775155D02*
G01*
X2123693Y-1775155D01*
X2123693Y-2029155D01*
X1869694Y-2029155D01*
X1869694Y-1838655D01*
D22*
X1869694Y-1775155D02*
G01*
X1869694Y-1838655D01*
D23*
X1615694Y-1411089D02*
G01*
X2123693Y-1411089D01*
X2123693Y-649089D01*
X1615694Y-649089D01*
X1615694Y-1411089D01*
X1615694Y-924247D01*
X2123688Y-594055D02*
G01*
X1615688Y-594055D01*
X1615688Y-86055D01*
X2123688Y-86055D01*
X2123688Y-594055D01*
D10*
X2433195Y-543255D02*
G01*
X2496695Y-606755D01*
X2496695Y-606755D02*
G01*
X2623695Y-606755D01*
X2623695Y-606755D02*
G01*
X2687195Y-543255D01*
X2687195Y-543255D02*
G01*
X2750695Y-606755D01*
X2750695Y-606755D02*
G01*
X2877695Y-606755D01*
X2877695Y-606755D02*
G01*
X2941195Y-543255D01*
X2941195Y-543255D02*
G01*
X3004695Y-606755D01*
X3004695Y-606755D02*
G01*
X3131695Y-606755D01*
X3131695Y-606755D02*
G01*
X3195195Y-543255D01*
X3195195Y-543255D02*
G01*
X3258695Y-606755D01*
X3258695Y-606755D02*
G01*
X3385695Y-606755D01*
X3385695Y-606755D02*
G01*
X3449195Y-543255D01*
X3449195Y-543255D02*
G01*
X3512695Y-606755D01*
X3512695Y-606755D02*
G01*
X3639695Y-606755D01*
X3639695Y-606755D02*
G01*
X3703195Y-543255D01*
X3703195Y-543255D02*
G01*
X3766695Y-606755D01*
X3766695Y-606755D02*
G01*
X3893695Y-606755D01*
X3893695Y-606755D02*
G01*
X3957195Y-543255D01*
X2433195Y-543255D02*
G01*
X2433195Y-162255D01*
X2433195Y-162255D02*
G01*
X2496695Y-98755D01*
X2496695Y-98755D02*
G01*
X2623695Y-98755D01*
X2623695Y-98755D02*
G01*
X2687195Y-162255D01*
X2687195Y-162255D02*
G01*
X2750695Y-98755D01*
X2750695Y-98755D02*
G01*
X2877695Y-98755D01*
X2877695Y-98755D02*
G01*
X2941195Y-162255D01*
X2941195Y-162255D02*
G01*
X3004695Y-98755D01*
X3004695Y-98755D02*
G01*
X3131695Y-98755D01*
X3131695Y-98755D02*
G01*
X3195195Y-162255D01*
X3195195Y-162255D02*
G01*
X3258695Y-98755D01*
X3258695Y-98755D02*
G01*
X3385695Y-98755D01*
X3385695Y-98755D02*
G01*
X3449195Y-162255D01*
X3449195Y-162255D02*
G01*
X3512695Y-98755D01*
X3512695Y-98755D02*
G01*
X3639695Y-98755D01*
X3639695Y-98755D02*
G01*
X3703195Y-162255D01*
X3703195Y-162255D02*
G01*
X3766695Y-98755D01*
X3766695Y-98755D02*
G01*
X3893695Y-98755D01*
X3893695Y-98755D02*
G01*
X3957195Y-162255D01*
X3957195Y-162255D02*
G01*
X4020695Y-98755D01*
X4020695Y-98755D02*
G01*
X4147695Y-98755D01*
X4147695Y-98755D02*
G01*
X4211195Y-162255D01*
X4211195Y-162255D02*
G01*
X4274695Y-98755D01*
X4274695Y-98755D02*
G01*
X4401695Y-98755D01*
X4401695Y-98755D02*
G01*
X4465195Y-162255D01*
X4465195Y-162255D02*
G01*
X4528695Y-98755D01*
X4528695Y-98755D02*
G01*
X4655695Y-98755D01*
X4655695Y-98755D02*
G01*
X4719195Y-162255D01*
X4719195Y-162255D02*
G01*
X4782695Y-98755D01*
X4782695Y-98755D02*
G01*
X4909695Y-98755D01*
X4909695Y-98755D02*
G01*
X4973195Y-162255D01*
X4973195Y-162255D02*
G01*
X5036695Y-98755D01*
X5036695Y-98755D02*
G01*
X5163695Y-98755D01*
X5163695Y-98755D02*
G01*
X5227195Y-162255D01*
X5227195Y-162255D02*
G01*
X5290695Y-98755D01*
X5290695Y-98755D02*
G01*
X5417695Y-98755D01*
X5481195Y-162255D02*
G01*
X5417695Y-98755D01*
X5481195Y-162255D02*
G01*
X5544695Y-98755D01*
X5671695Y-98755D02*
G01*
X5544695Y-98755D01*
X5671695Y-98755D02*
G01*
X5735195Y-162255D01*
X5735195Y-543255D02*
G01*
X5671695Y-606755D01*
X5671695Y-606755D02*
G01*
X5544695Y-606755D01*
X5481195Y-543255D02*
G01*
X5544695Y-606755D01*
X5481195Y-543255D02*
G01*
X5417695Y-606755D01*
X5417695Y-606755D02*
G01*
X5290695Y-606755D01*
X5227195Y-543255D02*
G01*
X5290695Y-606755D01*
X5227195Y-543255D02*
G01*
X5163695Y-606755D01*
X5163695Y-606755D02*
G01*
X5036695Y-606755D01*
X4973195Y-543255D02*
G01*
X5036695Y-606755D01*
X4973195Y-543255D02*
G01*
X4909695Y-606755D01*
X4909695Y-606755D02*
G01*
X4782695Y-606755D01*
X4719195Y-543255D02*
G01*
X4782695Y-606755D01*
X4719195Y-543255D02*
G01*
X4655695Y-606755D01*
X4655695Y-606755D02*
G01*
X4528695Y-606755D01*
X4465195Y-543255D02*
G01*
X4528695Y-606755D01*
X4465195Y-543255D02*
G01*
X4401695Y-606755D01*
X4401695Y-606755D02*
G01*
X4274695Y-606755D01*
X4211195Y-543255D02*
G01*
X4274695Y-606755D01*
X4211195Y-543255D02*
G01*
X4147695Y-606755D01*
X4147695Y-606755D02*
G01*
X4020695Y-606755D01*
X3957195Y-543255D02*
G01*
X4020695Y-606755D01*
X2687195Y-162255D02*
G01*
X2687195Y-543255D01*
X2941195Y-162255D02*
G01*
X2941195Y-543255D01*
X3195195Y-162255D02*
G01*
X3195195Y-543255D01*
X3449195Y-162255D02*
G01*
X3449195Y-543255D01*
X3703195Y-162255D02*
G01*
X3703195Y-543255D01*
X3957195Y-162255D02*
G01*
X3957195Y-543255D01*
X4211195Y-162255D02*
G01*
X4211195Y-543255D01*
X4465195Y-162255D02*
G01*
X4465195Y-543255D01*
X4719195Y-162255D02*
G01*
X4719195Y-543255D01*
X4973195Y-162255D02*
G01*
X4973195Y-543255D01*
X5227195Y-162255D02*
G01*
X5227195Y-543255D01*
X5481195Y-162255D02*
G01*
X5481195Y-543255D01*
X5735195Y-162255D02*
G01*
X5735195Y-543255D01*
X5735195Y-162255D02*
G01*
X5798695Y-98755D01*
X5925695Y-98755D02*
G01*
X5798695Y-98755D01*
X5925695Y-98755D02*
G01*
X5989195Y-162255D01*
X5989195Y-543255D02*
G01*
X5925695Y-606755D01*
X5925695Y-606755D02*
G01*
X5798695Y-606755D01*
X5735195Y-543255D02*
G01*
X5798695Y-606755D01*
X5989195Y-162255D02*
G01*
X5989195Y-543255D01*
X2455545Y-1368755D02*
G01*
X2455545Y-1167254D01*
X5995543Y-1167254D01*
X5995543Y-1697255D01*
X2455545Y-1697255D01*
X2455545Y-1495755D01*
X-264160Y-457200D02*
G01*
X-264160Y-1859279D01*
X1016000Y-1859279D02*
G01*
X1010920Y-457200D01*
D23*
X1426997Y-1657997D02*
G01*
X1172997Y-1657997D01*
X1172997Y-641997D01*
X1426997Y-641997D01*
X1426997Y-832497D01*
D22*
X1426997Y-1657997D02*
G01*
X1426997Y-832497D01*
D11*
G75*
G01*
X2431542Y-1812239D02*
G03*
X2431542Y-1811985I15001J127D01*
D10*
G75*
G01*
X2455418Y-1495755D02*
G03*
X2455418Y-1368755I0J63500D01*
D24*
G75*
G01*
X2525522Y-1597355D02*
G03*
X2525522Y-1596847I29999J254D01*
M02*
