G04 Layer: BottomLayer*
G04 EasyEDA v6.5.5, 2022-06-07 12:17:47*
G04 816fe8a47c3545be857c20b100b7e496,0a780afeddf54f0185a1b1f5ac8a31da,10*
G04 Gerber Generator version 0.2*
G04 Scale: 100 percent, Rotated: No, Reflected: No *
G04 Dimensions in millimeters *
G04 leading zeros omitted , absolute positions ,4 integer and 5 decimal *
%FSLAX45Y45*%
%MOMM*%

%ADD11C,0.3000*%
%ADD12C,0.8000*%
%ADD14C,1.7000*%
%ADD15R,1.5748X1.5748*%
%ADD16C,1.5748*%
%ADD18R,1.5000X1.5000*%
%ADD19C,1.5000*%
%ADD20C,3.5001*%
%ADD21R,1.4224X1.4224*%

%LPD*%
D11*
X5876569Y-1032255D02*
G01*
X5764758Y-1144066D01*
X5577484Y-1144066D01*
X5495569Y-1062151D01*
X5495569Y-722096D01*
X5354193Y-580720D01*
X5354193Y-479755D02*
G01*
X5354193Y-580720D01*
X2574569Y-1032255D02*
G01*
X2664485Y-942339D01*
X2664485Y-182295D01*
X2723311Y-123469D01*
X3169411Y-123469D01*
X3221227Y-175285D01*
X3221227Y-225755D01*
X3322193Y-225755D02*
G01*
X3221227Y-225755D01*
X5862193Y-479755D02*
G01*
X5761227Y-479755D01*
X5368569Y-1032255D02*
G01*
X5253050Y-916736D01*
X5253050Y-388035D01*
X5262473Y-378612D01*
X5710554Y-378612D01*
X5761227Y-429285D01*
X5761227Y-479755D01*
X1996693Y-322021D02*
G01*
X2023922Y-322021D01*
X2429103Y-727202D01*
X2429103Y-1178788D01*
X3082569Y-1832254D01*
X1996693Y-213055D02*
G01*
X1996693Y-322021D01*
X2828569Y-1832254D02*
G01*
X2159076Y-1162761D01*
X2159076Y-702182D01*
X2048789Y-591896D01*
X1953895Y-591896D01*
X1869694Y-507695D01*
X1869694Y-340055D01*
X1742694Y-213055D01*
X3336569Y-1032255D02*
G01*
X3068193Y-763879D01*
X3068193Y-479755D01*
X3590569Y-1032255D02*
G01*
X3322193Y-763879D01*
X3322193Y-479755D01*
X3844569Y-1032255D02*
G01*
X3576193Y-763879D01*
X3576193Y-479755D01*
X4860569Y-1032255D02*
G01*
X4947335Y-945489D01*
X4947335Y-185267D01*
X5007990Y-124612D01*
X5456554Y-124612D01*
X5507227Y-175285D01*
X5507227Y-225755D01*
X5608193Y-225755D02*
G01*
X5507227Y-225755D01*
X586739Y-817879D02*
G01*
X688086Y-817879D01*
X1299997Y-1022985D02*
G01*
X842518Y-1022985D01*
X688086Y-868553D01*
X688086Y-817879D01*
X1996693Y-1284096D02*
G01*
X1996693Y-1593113D01*
X1996693Y-1593113D02*
G01*
X1887550Y-1702257D01*
X1620012Y-1702257D01*
X1444853Y-1527098D01*
X1444853Y-1167841D01*
X1299997Y-1022985D01*
X2814193Y-326720D02*
G01*
X2864662Y-326720D01*
X2933979Y-396036D01*
X2933979Y-883665D01*
X3082569Y-1032255D01*
X2814193Y-225755D02*
G01*
X2814193Y-326720D01*
X5622569Y-1032255D02*
G01*
X5622569Y-595096D01*
X5608193Y-580720D01*
X5608193Y-479755D02*
G01*
X5608193Y-580720D01*
X3830193Y-580720D02*
G01*
X4225569Y-976096D01*
X4225569Y-1078737D01*
X4486071Y-1339240D01*
X4486071Y-1875967D01*
X4552772Y-1942668D01*
X5512155Y-1942668D01*
X5622569Y-1832254D01*
X3830193Y-479755D02*
G01*
X3830193Y-580720D01*
X1996693Y-1793189D02*
G01*
X2112162Y-1677720D01*
X2112162Y-736854D01*
X2040127Y-664819D01*
X1935683Y-664819D01*
X1851660Y-748842D01*
X1851660Y-776096D01*
X1996693Y-1902155D02*
G01*
X1996693Y-1793189D01*
X1742694Y-776096D02*
G01*
X1851660Y-776096D01*
X5876569Y-1832254D02*
G01*
X5305018Y-1260703D01*
X5188584Y-1260703D01*
X5006187Y-1078306D01*
X5006187Y-674725D01*
X5100193Y-580720D01*
X5100193Y-479755D02*
G01*
X5100193Y-580720D01*
X3068193Y-326720D02*
G01*
X3118662Y-326720D01*
X3179190Y-387248D01*
X3179190Y-685088D01*
X3450310Y-956208D01*
X3450310Y-1087145D01*
X3383991Y-1153464D01*
X2949778Y-1153464D01*
X2828569Y-1032255D01*
X3068193Y-225755D02*
G01*
X3068193Y-326720D01*
X5862193Y-225755D02*
G01*
X5761227Y-225755D01*
X5114569Y-1032255D02*
G01*
X5207634Y-939190D01*
X5207634Y-369239D01*
X5246827Y-330047D01*
X5707405Y-330047D01*
X5761227Y-276225D01*
X5761227Y-225755D01*
X5368569Y-1832254D02*
G01*
X4720386Y-1184071D01*
X4607407Y-1184071D01*
X4479569Y-1056233D01*
X4479569Y-1000785D01*
X4119930Y-641146D01*
X4051477Y-641146D01*
X3983050Y-572719D01*
X3983050Y-445338D01*
X3916324Y-378612D01*
X3779545Y-378612D01*
X3677158Y-276225D01*
X3677158Y-225755D01*
X3576193Y-225755D02*
G01*
X3677158Y-225755D01*
X3336569Y-1832254D02*
G01*
X2713227Y-1208912D01*
X2713227Y-681685D01*
X2814193Y-580720D01*
X2814193Y-479755D02*
G01*
X2814193Y-580720D01*
X1299997Y-768985D02*
G01*
X1299997Y-877951D01*
X1742694Y-1593113D02*
G01*
X1742694Y-1484147D01*
X586739Y-1599945D02*
G01*
X520954Y-1599945D01*
X287020Y-1833879D01*
X586739Y-1498600D02*
G01*
X586739Y-1599945D01*
X586739Y-1498600D02*
G01*
X485394Y-1498600D01*
X485394Y-1498600D02*
G01*
X287020Y-1300226D01*
X287020Y-1158239D01*
X287020Y-1158239D02*
G01*
X205739Y-1158239D01*
X1299997Y-768985D02*
G01*
X1191031Y-768985D01*
X287020Y-708710D02*
G01*
X1130757Y-708710D01*
X1191031Y-768985D01*
X287020Y-1158239D02*
G01*
X287020Y-708710D01*
X287020Y-708710D02*
G01*
X287020Y-477520D01*
X4098569Y-1032255D02*
G01*
X4098569Y-1142745D01*
X4352569Y-1396745D01*
X4352569Y-1832254D01*
X1633397Y-1143482D02*
G01*
X1633397Y-1374851D01*
X1742694Y-1484147D01*
X1996693Y-776096D02*
G01*
X1869897Y-902893D01*
X1869897Y-1071346D01*
X1797761Y-1143482D01*
X1633397Y-1143482D01*
X1633397Y-1143482D02*
G01*
X1367866Y-877951D01*
X1299997Y-877951D01*
X4084193Y-225755D02*
G01*
X4084193Y-326720D01*
X4084193Y-326720D02*
G01*
X4134662Y-326720D01*
X4237050Y-429107D01*
X4237050Y-573379D01*
X4317161Y-653491D01*
X4377283Y-653491D01*
X4745050Y-1021257D01*
X4745050Y-1106525D01*
X5292674Y-1654149D01*
G36*
X1657695Y-1514381D02*
G01*
X1827695Y-1514381D01*
X1827695Y-1671861D01*
X1657695Y-1671861D01*
G37*
D14*
G01*
X1996693Y-1593121D03*
D15*
G01*
X1996693Y-1902155D03*
D16*
G01*
X1996693Y-1284089D03*
G01*
X1742694Y-1284089D03*
G01*
X1996693Y-1030089D03*
G01*
X1742694Y-1030089D03*
G01*
X1996693Y-776089D03*
D15*
G01*
X1742694Y-776089D03*
G01*
X1996688Y-213055D03*
D16*
G01*
X1996688Y-467055D03*
G01*
X1742688Y-213055D03*
G01*
X1742688Y-467055D03*
G36*
X2489456Y-409016D02*
G01*
X2630934Y-409016D01*
X2630934Y-550494D01*
X2489456Y-550494D01*
G37*
G36*
X2489456Y-155016D02*
G01*
X2630934Y-155016D01*
X2630934Y-296494D01*
X2489456Y-296494D01*
G37*
G36*
X2743456Y-409016D02*
G01*
X2884934Y-409016D01*
X2884934Y-550494D01*
X2743456Y-550494D01*
G37*
G36*
X2743456Y-155016D02*
G01*
X2884934Y-155016D01*
X2884934Y-296494D01*
X2743456Y-296494D01*
G37*
G36*
X2997456Y-409016D02*
G01*
X3138934Y-409016D01*
X3138934Y-550494D01*
X2997456Y-550494D01*
G37*
G36*
X2997456Y-155016D02*
G01*
X3138934Y-155016D01*
X3138934Y-296494D01*
X2997456Y-296494D01*
G37*
G36*
X3251456Y-409016D02*
G01*
X3392934Y-409016D01*
X3392934Y-550494D01*
X3251456Y-550494D01*
G37*
G36*
X3251456Y-155016D02*
G01*
X3392934Y-155016D01*
X3392934Y-296494D01*
X3251456Y-296494D01*
G37*
G36*
X3505456Y-409016D02*
G01*
X3646934Y-409016D01*
X3646934Y-550494D01*
X3505456Y-550494D01*
G37*
G36*
X3505456Y-155016D02*
G01*
X3646934Y-155016D01*
X3646934Y-296494D01*
X3505456Y-296494D01*
G37*
G36*
X3759456Y-409016D02*
G01*
X3900934Y-409016D01*
X3900934Y-550494D01*
X3759456Y-550494D01*
G37*
G36*
X3759456Y-155016D02*
G01*
X3900934Y-155016D01*
X3900934Y-296494D01*
X3759456Y-296494D01*
G37*
G36*
X4013456Y-409016D02*
G01*
X4154934Y-409016D01*
X4154934Y-550494D01*
X4013456Y-550494D01*
G37*
G36*
X4013456Y-155016D02*
G01*
X4154934Y-155016D01*
X4154934Y-296494D01*
X4013456Y-296494D01*
G37*
G36*
X4267456Y-409016D02*
G01*
X4408934Y-409016D01*
X4408934Y-550494D01*
X4267456Y-550494D01*
G37*
G36*
X4267456Y-155016D02*
G01*
X4408934Y-155016D01*
X4408934Y-296494D01*
X4267456Y-296494D01*
G37*
G36*
X4521456Y-409016D02*
G01*
X4662934Y-409016D01*
X4662934Y-550494D01*
X4521456Y-550494D01*
G37*
G36*
X4521456Y-155016D02*
G01*
X4662934Y-155016D01*
X4662934Y-296494D01*
X4521456Y-296494D01*
G37*
G36*
X4775456Y-409016D02*
G01*
X4916934Y-409016D01*
X4916934Y-550494D01*
X4775456Y-550494D01*
G37*
G36*
X4775456Y-155016D02*
G01*
X4916934Y-155016D01*
X4916934Y-296494D01*
X4775456Y-296494D01*
G37*
G36*
X5029456Y-409016D02*
G01*
X5170934Y-409016D01*
X5170934Y-550494D01*
X5029456Y-550494D01*
G37*
G36*
X5029456Y-155016D02*
G01*
X5170934Y-155016D01*
X5170934Y-296494D01*
X5029456Y-296494D01*
G37*
G36*
X5283456Y-409016D02*
G01*
X5424934Y-409016D01*
X5424934Y-550494D01*
X5283456Y-550494D01*
G37*
G36*
X5283456Y-155016D02*
G01*
X5424934Y-155016D01*
X5424934Y-296494D01*
X5283456Y-296494D01*
G37*
G36*
X5537456Y-409016D02*
G01*
X5678934Y-409016D01*
X5678934Y-550494D01*
X5537456Y-550494D01*
G37*
G36*
X5537456Y-155016D02*
G01*
X5678934Y-155016D01*
X5678934Y-296494D01*
X5537456Y-296494D01*
G37*
G36*
X5791456Y-409016D02*
G01*
X5932934Y-409016D01*
X5932934Y-550494D01*
X5791456Y-550494D01*
G37*
G36*
X5791456Y-155016D02*
G01*
X5932934Y-155016D01*
X5932934Y-296494D01*
X5791456Y-296494D01*
G37*
D18*
G01*
X2574556Y-1832254D03*
D19*
G01*
X2828556Y-1832254D03*
G01*
X3082556Y-1832254D03*
G01*
X3336556Y-1832254D03*
G01*
X3590556Y-1832254D03*
G01*
X3844556Y-1832254D03*
G01*
X4098556Y-1832254D03*
G01*
X4352556Y-1832254D03*
G01*
X4606556Y-1832254D03*
G01*
X4860556Y-1832254D03*
G01*
X5114556Y-1832254D03*
G01*
X5368556Y-1832254D03*
G01*
X5622556Y-1832254D03*
G01*
X5876556Y-1832254D03*
G01*
X2574556Y-1032255D03*
G01*
X2828556Y-1032255D03*
G01*
X3082556Y-1032255D03*
G01*
X3336556Y-1032255D03*
G01*
X3590556Y-1032255D03*
G01*
X3844556Y-1032255D03*
G01*
X4098556Y-1032255D03*
G01*
X4352556Y-1032255D03*
G01*
X4606556Y-1032255D03*
G01*
X4860556Y-1032255D03*
G01*
X5114556Y-1032255D03*
G01*
X5368556Y-1032255D03*
G01*
X5622556Y-1032255D03*
G01*
X5876556Y-1032255D03*
D20*
G01*
X287020Y-477520D03*
G01*
X287020Y-1833879D03*
G01*
X205739Y-1158239D03*
D21*
G01*
X586739Y-1028700D03*
G01*
X586739Y-1287779D03*
G01*
X586739Y-1498600D03*
G01*
X586739Y-817879D03*
G01*
X835660Y-817879D03*
G01*
X830579Y-1498600D03*
D15*
G01*
X1299997Y-768997D03*
D16*
G01*
X1299997Y-1022997D03*
G01*
X1299997Y-1276997D03*
G01*
X1299997Y-1530997D03*
D12*
G01*
X5292674Y-1654149D03*
M02*
