M48
METRIC,LZ,000.000
;FILE_FORMAT=3:3
;TYPE=PLATED
;Layer: PTH_Through
;EasyEDA v6.5.5, 2022-07-08 19:06:44
;04dbce6b86ab4aa5bbd08ae1767c2fe9,0a780afeddf54f0185a1b1f5ac8a31da,10
;Gerber Generator version 0.2
;Holesize 1 = 0.501 mm
T01C0.501
;Holesize 2 = 0.506 mm
T02C0.506
;Holesize 3 = 0.889 mm
T03C0.889
;Holesize 4 = 0.900 mm
T04C0.900
;Holesize 5 = 0.915 mm
T05C0.915
;Holesize 6 = 1.101 mm
T06C1.101
;Holesize 7 = 2.302 mm
T07C2.302
%
G05
G90
T01
X064720Y-008525
T02
X055950Y-020204
X059607Y-005457
X076610Y-000603
X046295Y-011220
X070432Y-013019
X047387Y-009532
X038575Y-010985
X066628Y-010577
T03
X025654Y-028829
X025654Y-026289
X025654Y-023749
X013000Y-007691
X013000Y-010231
X013000Y-012771
X013000Y-015311
T04
X005867Y-010287
X005867Y-012878
X005867Y-014986
X005867Y-008179
X008357Y-008179
X008306Y-014986
X047000Y-029810
X047000Y-022190
X050000Y-029810
X050000Y-022190
X053000Y-029810
X053000Y-022190
X056000Y-029810
X056000Y-022190
X059000Y-029810
X059000Y-022190
X062000Y-029810
X062000Y-022190
X065000Y-029810
X065000Y-022190
X068000Y-029810
X068000Y-022190
X041148Y-022190
X041148Y-029810
X038481Y-022190
X038481Y-029810
X035814Y-022190
X035814Y-029810
X033147Y-022190
X033147Y-029810
X030353Y-022190
X030353Y-029810
T05
X019000Y-017000
X021540Y-017000
X024080Y-017000
X026620Y-017000
X029160Y-017000
X031700Y-017000
X034240Y-017000
X036780Y-017000
X039320Y-017000
X041860Y-017000
X044400Y-017000
X046940Y-017000
X049480Y-017000
X052020Y-017000
X054560Y-017000
X057100Y-017000
X059640Y-017000
X062180Y-017000
X064720Y-017000
X067260Y-017000
X019000Y-001760
X021540Y-001760
X024080Y-001760
X026620Y-001760
X029160Y-001760
X031700Y-001760
X034240Y-001760
X036780Y-001760
X039320Y-001760
X041860Y-001760
X044400Y-001760
X046940Y-001760
X049480Y-001760
X052020Y-001760
X054560Y-001760
X057100Y-001760
X059640Y-001760
X062180Y-001760
X064720Y-001760
X067260Y-001760
T06
X073730Y-002032
X076270Y-002032
X073730Y-004572
X076270Y-004572
X073730Y-007112
X076270Y-007112
X073730Y-009652
X076270Y-009652
X073730Y-012192
X076270Y-012192
X073730Y-014732
X076270Y-014732
X073730Y-017272
X076270Y-017272
X073730Y-019812
X076270Y-019812
X073730Y-022352
X076270Y-022352
X073730Y-024892
X076270Y-024892
X073730Y-027432
X076270Y-027432
X073730Y-029972
X076270Y-029972
T07
X002870Y-004775
X002870Y-018339
X002057Y-011582
M30
