G04 Layer: TopSilkscreenLayer*
G04 EasyEDA v6.5.5, 2022-07-08 19:06:44*
G04 04dbce6b86ab4aa5bbd08ae1767c2fe9,0a780afeddf54f0185a1b1f5ac8a31da,10*
G04 Gerber Generator version 0.2*
G04 Scale: 100 percent, Rotated: No, Reflected: No *
G04 Dimensions in millimeters *
G04 leading zeros omitted , absolute positions ,4 integer and 5 decimal *
%FSLAX45Y45*%
%MOMM*%

%ADD10C,0.2540*%
%ADD23C,0.2032*%
%ADD24C,0.2030*%
%ADD25C,0.1524*%

%LPD*%
D25*
X724915Y-190500D02*
G01*
X615950Y-263144D01*
X724915Y-263144D02*
G01*
X615950Y-190500D01*
X704087Y-297434D02*
G01*
X709421Y-307847D01*
X724915Y-323595D01*
X615950Y-323595D01*
X695197Y-1386839D02*
G01*
X692912Y-1382268D01*
X686054Y-1375410D01*
X734568Y-1375410D01*
X697484Y-1145794D02*
G01*
X695197Y-1145794D01*
X690626Y-1143507D01*
X688339Y-1141221D01*
X686054Y-1136650D01*
X686054Y-1127252D01*
X688339Y-1122679D01*
X690626Y-1120394D01*
X695197Y-1118107D01*
X699770Y-1118107D01*
X704595Y-1120394D01*
X711454Y-1124965D01*
X734568Y-1148079D01*
X734568Y-1115821D01*
X686054Y-1610868D02*
G01*
X686054Y-1585468D01*
X704595Y-1599184D01*
X704595Y-1592326D01*
X706881Y-1587754D01*
X709168Y-1585468D01*
X716026Y-1583181D01*
X720597Y-1583181D01*
X727710Y-1585468D01*
X732281Y-1590039D01*
X734568Y-1596897D01*
X734568Y-1604010D01*
X732281Y-1610868D01*
X729995Y-1613154D01*
X725170Y-1615439D01*
X691134Y-901954D02*
G01*
X691134Y-925068D01*
X711962Y-927354D01*
X709676Y-925068D01*
X707389Y-918210D01*
X707389Y-911097D01*
X709676Y-904239D01*
X714247Y-899668D01*
X721105Y-897381D01*
X725678Y-897381D01*
X732789Y-899668D01*
X737362Y-904239D01*
X739647Y-911097D01*
X739647Y-918210D01*
X737362Y-925068D01*
X735076Y-927354D01*
X730250Y-929639D01*
X941831Y-1595373D02*
G01*
X937260Y-1597660D01*
X934973Y-1604518D01*
X934973Y-1609089D01*
X937260Y-1616202D01*
X944118Y-1620773D01*
X955802Y-1623060D01*
X967231Y-1623060D01*
X976629Y-1620773D01*
X981202Y-1616202D01*
X983487Y-1609089D01*
X983487Y-1606804D01*
X981202Y-1599945D01*
X976629Y-1595373D01*
X969518Y-1593087D01*
X967231Y-1593087D01*
X960373Y-1595373D01*
X955802Y-1599945D01*
X953515Y-1606804D01*
X953515Y-1609089D01*
X955802Y-1616202D01*
X960373Y-1620773D01*
X967231Y-1623060D01*
X940054Y-935989D02*
G01*
X942339Y-942847D01*
X946912Y-945134D01*
X951484Y-945134D01*
X956310Y-942847D01*
X958595Y-938276D01*
X960881Y-928878D01*
X963168Y-922020D01*
X967739Y-917447D01*
X972312Y-915162D01*
X979170Y-915162D01*
X983995Y-917447D01*
X986281Y-919734D01*
X988568Y-926592D01*
X988568Y-935989D01*
X986281Y-942847D01*
X983995Y-945134D01*
X979170Y-947420D01*
X972312Y-947420D01*
X967739Y-945134D01*
X963168Y-940562D01*
X960881Y-933450D01*
X958595Y-924305D01*
X956310Y-919734D01*
X951484Y-917447D01*
X946912Y-917447D01*
X942339Y-919734D01*
X940054Y-926592D01*
X940054Y-935989D01*
X7170800Y-1409905D02*
G01*
X7061834Y-1409905D01*
X7170800Y-1482549D02*
G01*
X7061834Y-1482549D01*
X7118984Y-1409905D02*
G01*
X7118984Y-1482549D01*
X7149972Y-1516839D02*
G01*
X7155306Y-1527253D01*
X7170800Y-1543001D01*
X7061834Y-1543001D01*
X2629915Y-2058670D02*
G01*
X2546858Y-2058670D01*
X2531109Y-2053336D01*
X2526029Y-2048255D01*
X2520950Y-2037842D01*
X2520950Y-2027428D01*
X2526029Y-2017013D01*
X2531109Y-2011679D01*
X2546858Y-2006600D01*
X2557272Y-2006600D01*
X2604008Y-2098039D02*
G01*
X2609088Y-2098039D01*
X2619502Y-2103120D01*
X2624836Y-2108454D01*
X2629915Y-2118868D01*
X2629915Y-2139695D01*
X2624836Y-2150110D01*
X2619502Y-2155189D01*
X2609088Y-2160270D01*
X2598674Y-2160270D01*
X2588259Y-2155189D01*
X2572765Y-2144776D01*
X2520950Y-2092960D01*
X2520950Y-2165604D01*
X4655388Y-2082800D02*
G01*
X4764354Y-2082800D01*
X4655388Y-2082800D02*
G01*
X4655388Y-2036063D01*
X4660468Y-2020570D01*
X4665802Y-2015236D01*
X4676216Y-2010155D01*
X4686630Y-2010155D01*
X4697044Y-2015236D01*
X4702124Y-2020570D01*
X4707204Y-2036063D01*
X4707204Y-2082800D01*
X4707204Y-2046478D02*
G01*
X4764354Y-2010155D01*
X4676216Y-1975865D02*
G01*
X4670882Y-1965452D01*
X4655388Y-1949704D01*
X4764354Y-1949704D01*
X4955387Y-2082800D02*
G01*
X5064353Y-2082800D01*
X4955387Y-2082800D02*
G01*
X4955387Y-2036063D01*
X4960467Y-2020570D01*
X4965801Y-2015236D01*
X4976215Y-2010155D01*
X4986629Y-2010155D01*
X4997043Y-2015236D01*
X5002123Y-2020570D01*
X5007203Y-2036063D01*
X5007203Y-2082800D01*
X5007203Y-2046478D02*
G01*
X5064353Y-2010155D01*
X4981295Y-1970531D02*
G01*
X4976215Y-1970531D01*
X4965801Y-1965452D01*
X4960467Y-1960118D01*
X4955387Y-1949704D01*
X4955387Y-1929129D01*
X4960467Y-1918715D01*
X4965801Y-1913381D01*
X4976215Y-1908302D01*
X4986629Y-1908302D01*
X4997043Y-1913381D01*
X5012537Y-1923795D01*
X5064353Y-1975865D01*
X5064353Y-1902968D01*
X5255386Y-2082800D02*
G01*
X5364352Y-2082800D01*
X5255386Y-2082800D02*
G01*
X5255386Y-2036063D01*
X5260466Y-2020570D01*
X5265800Y-2015236D01*
X5276215Y-2010155D01*
X5286629Y-2010155D01*
X5297043Y-2015236D01*
X5302122Y-2020570D01*
X5307202Y-2036063D01*
X5307202Y-2082800D01*
X5307202Y-2046478D02*
G01*
X5364352Y-2010155D01*
X5255386Y-1965452D02*
G01*
X5255386Y-1908302D01*
X5297043Y-1939289D01*
X5297043Y-1923795D01*
X5302122Y-1913381D01*
X5307202Y-1908302D01*
X5322950Y-1902968D01*
X5333365Y-1902968D01*
X5348859Y-1908302D01*
X5359272Y-1918715D01*
X5364352Y-1934210D01*
X5364352Y-1949704D01*
X5359272Y-1965452D01*
X5354193Y-1970531D01*
X5343779Y-1975865D01*
X5555386Y-2082800D02*
G01*
X5664352Y-2082800D01*
X5555386Y-2082800D02*
G01*
X5555386Y-2036063D01*
X5560466Y-2020570D01*
X5565800Y-2015236D01*
X5576214Y-2010155D01*
X5586628Y-2010155D01*
X5597042Y-2015236D01*
X5602122Y-2020570D01*
X5607202Y-2036063D01*
X5607202Y-2082800D01*
X5607202Y-2046478D02*
G01*
X5664352Y-2010155D01*
X5555386Y-1923795D02*
G01*
X5628030Y-1975865D01*
X5628030Y-1897887D01*
X5555386Y-1923795D02*
G01*
X5664352Y-1923795D01*
X5855385Y-2082800D02*
G01*
X5964351Y-2082800D01*
X5855385Y-2082800D02*
G01*
X5855385Y-2036063D01*
X5860465Y-2020570D01*
X5865799Y-2015236D01*
X5876213Y-2010155D01*
X5886627Y-2010155D01*
X5897041Y-2015236D01*
X5902121Y-2020570D01*
X5907201Y-2036063D01*
X5907201Y-2082800D01*
X5907201Y-2046478D02*
G01*
X5964351Y-2010155D01*
X5855385Y-1913381D02*
G01*
X5855385Y-1965452D01*
X5902121Y-1970531D01*
X5897041Y-1965452D01*
X5891707Y-1949704D01*
X5891707Y-1934210D01*
X5897041Y-1918715D01*
X5907201Y-1908302D01*
X5922949Y-1902968D01*
X5933363Y-1902968D01*
X5948857Y-1908302D01*
X5959271Y-1918715D01*
X5964351Y-1934210D01*
X5964351Y-1949704D01*
X5959271Y-1965452D01*
X5954191Y-1970531D01*
X5943777Y-1975865D01*
X6155385Y-2082800D02*
G01*
X6264351Y-2082800D01*
X6155385Y-2082800D02*
G01*
X6155385Y-2036063D01*
X6160465Y-2020570D01*
X6165799Y-2015236D01*
X6176213Y-2010155D01*
X6186627Y-2010155D01*
X6197041Y-2015236D01*
X6202121Y-2020570D01*
X6207201Y-2036063D01*
X6207201Y-2082800D01*
X6207201Y-2046478D02*
G01*
X6264351Y-2010155D01*
X6170879Y-1913381D02*
G01*
X6160465Y-1918715D01*
X6155385Y-1934210D01*
X6155385Y-1944623D01*
X6160465Y-1960118D01*
X6176213Y-1970531D01*
X6202121Y-1975865D01*
X6228029Y-1975865D01*
X6248857Y-1970531D01*
X6259271Y-1960118D01*
X6264351Y-1944623D01*
X6264351Y-1939289D01*
X6259271Y-1923795D01*
X6248857Y-1913381D01*
X6233363Y-1908302D01*
X6228029Y-1908302D01*
X6212535Y-1913381D01*
X6202121Y-1923795D01*
X6197041Y-1939289D01*
X6197041Y-1944623D01*
X6202121Y-1960118D01*
X6212535Y-1970531D01*
X6228029Y-1975865D01*
X6455384Y-2082800D02*
G01*
X6564350Y-2082800D01*
X6455384Y-2082800D02*
G01*
X6455384Y-2036063D01*
X6460464Y-2020570D01*
X6465798Y-2015236D01*
X6476212Y-2010155D01*
X6486626Y-2010155D01*
X6497040Y-2015236D01*
X6502120Y-2020570D01*
X6507200Y-2036063D01*
X6507200Y-2082800D01*
X6507200Y-2046478D02*
G01*
X6564350Y-2010155D01*
X6455384Y-1902968D02*
G01*
X6564350Y-1955037D01*
X6455384Y-1975865D02*
G01*
X6455384Y-1902968D01*
X6755384Y-2082800D02*
G01*
X6864350Y-2082800D01*
X6755384Y-2082800D02*
G01*
X6755384Y-2036063D01*
X6760463Y-2020570D01*
X6765797Y-2015236D01*
X6776211Y-2010155D01*
X6786625Y-2010155D01*
X6797040Y-2015236D01*
X6802120Y-2020570D01*
X6807200Y-2036063D01*
X6807200Y-2082800D01*
X6807200Y-2046478D02*
G01*
X6864350Y-2010155D01*
X6755384Y-1949704D02*
G01*
X6760463Y-1965452D01*
X6770877Y-1970531D01*
X6781291Y-1970531D01*
X6791706Y-1965452D01*
X6797040Y-1955037D01*
X6802120Y-1934210D01*
X6807200Y-1918715D01*
X6817613Y-1908302D01*
X6828027Y-1902968D01*
X6843775Y-1902968D01*
X6854190Y-1908302D01*
X6859270Y-1913381D01*
X6864350Y-1929129D01*
X6864350Y-1949704D01*
X6859270Y-1965452D01*
X6854190Y-1970531D01*
X6843775Y-1975865D01*
X6828027Y-1975865D01*
X6817613Y-1970531D01*
X6807200Y-1960118D01*
X6802120Y-1944623D01*
X6797040Y-1923795D01*
X6791706Y-1913381D01*
X6781291Y-1908302D01*
X6770877Y-1908302D01*
X6760463Y-1913381D01*
X6755384Y-1929129D01*
X6755384Y-1949704D01*
X4153915Y-1863394D02*
G01*
X4044950Y-1863394D01*
X4153915Y-1863394D02*
G01*
X4153915Y-1910130D01*
X4148836Y-1925624D01*
X4143502Y-1930958D01*
X4133088Y-1936038D01*
X4122674Y-1936038D01*
X4112259Y-1930958D01*
X4107179Y-1925624D01*
X4102100Y-1910130D01*
X4102100Y-1863394D01*
X4102100Y-1899716D02*
G01*
X4044950Y-1936038D01*
X4117593Y-2037892D02*
G01*
X4102100Y-2032812D01*
X4091686Y-2022398D01*
X4086352Y-2006904D01*
X4086352Y-2001570D01*
X4091686Y-1986076D01*
X4102100Y-1975662D01*
X4117593Y-1970328D01*
X4122674Y-1970328D01*
X4138422Y-1975662D01*
X4148836Y-1986076D01*
X4153915Y-2001570D01*
X4153915Y-2006904D01*
X4148836Y-2022398D01*
X4138422Y-2032812D01*
X4117593Y-2037892D01*
X4091686Y-2037892D01*
X4065524Y-2032812D01*
X4050029Y-2022398D01*
X4044950Y-2006904D01*
X4044950Y-1996490D01*
X4050029Y-1980742D01*
X4060443Y-1975662D01*
X3887215Y-1863394D02*
G01*
X3778250Y-1863394D01*
X3887215Y-1863394D02*
G01*
X3887215Y-1910130D01*
X3882136Y-1925624D01*
X3876802Y-1930958D01*
X3866388Y-1936038D01*
X3855974Y-1936038D01*
X3845559Y-1930958D01*
X3840479Y-1925624D01*
X3835400Y-1910130D01*
X3835400Y-1863394D01*
X3835400Y-1899716D02*
G01*
X3778250Y-1936038D01*
X3866388Y-1970328D02*
G01*
X3871722Y-1980742D01*
X3887215Y-1996490D01*
X3778250Y-1996490D01*
X3887215Y-2061768D02*
G01*
X3882136Y-2046274D01*
X3866388Y-2035860D01*
X3840479Y-2030780D01*
X3824986Y-2030780D01*
X3798824Y-2035860D01*
X3783329Y-2046274D01*
X3778250Y-2061768D01*
X3778250Y-2072182D01*
X3783329Y-2087930D01*
X3798824Y-2098344D01*
X3824986Y-2103424D01*
X3840479Y-2103424D01*
X3866388Y-2098344D01*
X3882136Y-2087930D01*
X3887215Y-2072182D01*
X3887215Y-2061768D01*
X3620515Y-1863394D02*
G01*
X3511550Y-1863394D01*
X3620515Y-1863394D02*
G01*
X3620515Y-1910130D01*
X3615436Y-1925624D01*
X3610102Y-1930958D01*
X3599688Y-1936038D01*
X3589274Y-1936038D01*
X3578859Y-1930958D01*
X3573779Y-1925624D01*
X3568700Y-1910130D01*
X3568700Y-1863394D01*
X3568700Y-1899716D02*
G01*
X3511550Y-1936038D01*
X3599688Y-1970328D02*
G01*
X3605022Y-1980742D01*
X3620515Y-1996490D01*
X3511550Y-1996490D01*
X3599688Y-2030780D02*
G01*
X3605022Y-2041194D01*
X3620515Y-2056688D01*
X3511550Y-2056688D01*
X3353815Y-1863394D02*
G01*
X3244850Y-1863394D01*
X3353815Y-1863394D02*
G01*
X3353815Y-1910130D01*
X3348736Y-1925624D01*
X3343402Y-1930958D01*
X3332988Y-1936038D01*
X3322574Y-1936038D01*
X3312159Y-1930958D01*
X3307079Y-1925624D01*
X3302000Y-1910130D01*
X3302000Y-1863394D01*
X3302000Y-1899716D02*
G01*
X3244850Y-1936038D01*
X3332988Y-1970328D02*
G01*
X3338322Y-1980742D01*
X3353815Y-1996490D01*
X3244850Y-1996490D01*
X3327908Y-2035860D02*
G01*
X3332988Y-2035860D01*
X3343402Y-2041194D01*
X3348736Y-2046274D01*
X3353815Y-2056688D01*
X3353815Y-2077516D01*
X3348736Y-2087930D01*
X3343402Y-2093010D01*
X3332988Y-2098344D01*
X3322574Y-2098344D01*
X3312159Y-2093010D01*
X3296665Y-2082596D01*
X3244850Y-2030780D01*
X3244850Y-2103424D01*
X3074415Y-1863394D02*
G01*
X2965450Y-1863394D01*
X3074415Y-1863394D02*
G01*
X3074415Y-1910130D01*
X3069336Y-1925624D01*
X3064002Y-1930958D01*
X3053588Y-1936038D01*
X3043174Y-1936038D01*
X3032759Y-1930958D01*
X3027679Y-1925624D01*
X3022600Y-1910130D01*
X3022600Y-1863394D01*
X3022600Y-1899716D02*
G01*
X2965450Y-1936038D01*
X3053588Y-1970328D02*
G01*
X3058922Y-1980742D01*
X3074415Y-1996490D01*
X2965450Y-1996490D01*
X3074415Y-2041194D02*
G01*
X3074415Y-2098344D01*
X3032759Y-2067102D01*
X3032759Y-2082596D01*
X3027679Y-2093010D01*
X3022600Y-2098344D01*
X3006852Y-2103424D01*
X2996438Y-2103424D01*
X2980943Y-2098344D01*
X2970529Y-2087930D01*
X2965450Y-2072182D01*
X2965450Y-2056688D01*
X2970529Y-2041194D01*
X2975609Y-2035860D01*
X2986024Y-2030780D01*
X6993712Y-937996D02*
G01*
X6915734Y-937996D01*
X6900240Y-943076D01*
X6889826Y-953490D01*
X6884746Y-969238D01*
X6884746Y-979652D01*
X6889826Y-995146D01*
X6900240Y-1005560D01*
X6915734Y-1010640D01*
X6993712Y-1010640D01*
X6972884Y-1044930D02*
G01*
X6978218Y-1055344D01*
X6993712Y-1071092D01*
X6884746Y-1071092D01*
D23*
X3647132Y-868781D02*
G01*
X3628590Y-850239D01*
X3600904Y-841095D01*
X3564074Y-841095D01*
X3536388Y-850239D01*
X3517846Y-868781D01*
X3517846Y-887323D01*
X3526990Y-905611D01*
X3536388Y-915009D01*
X3554676Y-924153D01*
X3610302Y-942695D01*
X3628590Y-951839D01*
X3637988Y-960983D01*
X3647132Y-979525D01*
X3647132Y-1007211D01*
X3628590Y-1025753D01*
X3600904Y-1034897D01*
X3564074Y-1034897D01*
X3536388Y-1025753D01*
X3517846Y-1007211D01*
X3772862Y-841095D02*
G01*
X3772862Y-1034897D01*
X3708092Y-841095D02*
G01*
X3837378Y-841095D01*
X3898338Y-841095D02*
G01*
X3898338Y-1034897D01*
X3898338Y-841095D02*
G01*
X3972252Y-1034897D01*
X4046166Y-841095D02*
G01*
X3972252Y-1034897D01*
X4046166Y-841095D02*
G01*
X4046166Y-1034897D01*
X4125668Y-841095D02*
G01*
X4227268Y-841095D01*
X4171896Y-915009D01*
X4199582Y-915009D01*
X4217870Y-924153D01*
X4227268Y-933297D01*
X4236412Y-960983D01*
X4236412Y-979525D01*
X4227268Y-1007211D01*
X4208726Y-1025753D01*
X4181040Y-1034897D01*
X4153354Y-1034897D01*
X4125668Y-1025753D01*
X4116270Y-1016609D01*
X4107126Y-998067D01*
X4306516Y-887323D02*
G01*
X4306516Y-877925D01*
X4315914Y-859383D01*
X4325058Y-850239D01*
X4343600Y-841095D01*
X4380430Y-841095D01*
X4398972Y-850239D01*
X4408116Y-859383D01*
X4417514Y-877925D01*
X4417514Y-896467D01*
X4408116Y-915009D01*
X4389828Y-942695D01*
X4297372Y-1034897D01*
X4426658Y-1034897D01*
X4487618Y-841095D02*
G01*
X4487618Y-1034897D01*
X4487618Y-841095D02*
G01*
X4607760Y-841095D01*
X4487618Y-933297D02*
G01*
X4561532Y-933297D01*
X4668720Y-877925D02*
G01*
X4687262Y-868781D01*
X4714948Y-841095D01*
X4714948Y-1034897D01*
X4831280Y-841095D02*
G01*
X4803594Y-850239D01*
X4785052Y-877925D01*
X4775908Y-924153D01*
X4775908Y-951839D01*
X4785052Y-998067D01*
X4803594Y-1025753D01*
X4831280Y-1034897D01*
X4849822Y-1034897D01*
X4877508Y-1025753D01*
X4895796Y-998067D01*
X4905194Y-951839D01*
X4905194Y-924153D01*
X4895796Y-877925D01*
X4877508Y-850239D01*
X4849822Y-841095D01*
X4831280Y-841095D01*
X4984696Y-841095D02*
G01*
X5086296Y-841095D01*
X5030670Y-915009D01*
X5058356Y-915009D01*
X5076898Y-924153D01*
X5086296Y-933297D01*
X5095440Y-960983D01*
X5095440Y-979525D01*
X5086296Y-1007211D01*
X5067754Y-1025753D01*
X5040068Y-1034897D01*
X5012382Y-1034897D01*
X4984696Y-1025753D01*
X4975298Y-1016609D01*
X4966154Y-998067D01*
D25*
X1613814Y-1156944D02*
G01*
X1530756Y-1156944D01*
X1515262Y-1151610D01*
X1509928Y-1146530D01*
X1504848Y-1136116D01*
X1504848Y-1125702D01*
X1509928Y-1115288D01*
X1515262Y-1110208D01*
X1530756Y-1104874D01*
X1541170Y-1104874D01*
X1593240Y-1191234D02*
G01*
X1598320Y-1201648D01*
X1613814Y-1217142D01*
X1504848Y-1217142D01*
D10*
X-264160Y-457200D02*
G01*
X-264160Y-1859279D01*
X1016000Y-1859279D02*
G01*
X1010920Y-457200D01*
X7753984Y-53200D02*
G01*
X7753984Y-3147199D01*
X7500691Y-53200D02*
G01*
X7500691Y-330200D01*
X7245984Y-330200D01*
X7245984Y-53200D02*
G01*
X7245984Y-3147199D01*
X7753984Y-53200D02*
G01*
X7245984Y-53200D01*
X7753984Y-3147199D02*
G01*
X7245984Y-3147199D01*
D23*
X2692400Y-2438400D02*
G01*
X2692400Y-2247900D01*
X2438400Y-2247900D01*
X2438400Y-3009900D01*
X2692400Y-3009900D01*
D24*
X2692400Y-3009900D02*
G01*
X2692400Y-2438400D01*
D10*
X4699990Y-2853994D02*
G01*
X4699990Y-2879394D01*
X4699990Y-2345994D02*
G01*
X4699990Y-2320594D01*
X4699990Y-2853994D02*
G01*
X4623790Y-2853994D01*
X4776190Y-2853994D02*
G01*
X4699990Y-2853994D01*
X4776190Y-2345994D02*
G01*
X4776190Y-2853994D01*
X4699990Y-2345994D02*
G01*
X4776190Y-2345994D01*
X4623790Y-2345994D02*
G01*
X4699990Y-2345994D01*
X4623790Y-2853994D02*
G01*
X4623790Y-2345994D01*
X4999990Y-2853994D02*
G01*
X4999990Y-2879394D01*
X4999990Y-2345994D02*
G01*
X4999990Y-2320594D01*
X4999990Y-2853994D02*
G01*
X4923790Y-2853994D01*
X5076190Y-2853994D02*
G01*
X4999990Y-2853994D01*
X5076190Y-2345994D02*
G01*
X5076190Y-2853994D01*
X4999990Y-2345994D02*
G01*
X5076190Y-2345994D01*
X4923790Y-2345994D02*
G01*
X4999990Y-2345994D01*
X4923790Y-2853994D02*
G01*
X4923790Y-2345994D01*
X5299989Y-2853994D02*
G01*
X5299989Y-2879394D01*
X5299989Y-2345994D02*
G01*
X5299989Y-2320594D01*
X5299989Y-2853994D02*
G01*
X5223789Y-2853994D01*
X5376189Y-2853994D02*
G01*
X5299989Y-2853994D01*
X5376189Y-2345994D02*
G01*
X5376189Y-2853994D01*
X5299989Y-2345994D02*
G01*
X5376189Y-2345994D01*
X5223789Y-2345994D02*
G01*
X5299989Y-2345994D01*
X5223789Y-2853994D02*
G01*
X5223789Y-2345994D01*
X5599988Y-2853994D02*
G01*
X5599988Y-2879394D01*
X5599988Y-2345994D02*
G01*
X5599988Y-2320594D01*
X5599988Y-2853994D02*
G01*
X5523788Y-2853994D01*
X5676188Y-2853994D02*
G01*
X5599988Y-2853994D01*
X5676188Y-2345994D02*
G01*
X5676188Y-2853994D01*
X5599988Y-2345994D02*
G01*
X5676188Y-2345994D01*
X5523788Y-2345994D02*
G01*
X5599988Y-2345994D01*
X5523788Y-2853994D02*
G01*
X5523788Y-2345994D01*
X5899988Y-2853994D02*
G01*
X5899988Y-2879394D01*
X5899988Y-2345994D02*
G01*
X5899988Y-2320594D01*
X5899988Y-2853994D02*
G01*
X5823788Y-2853994D01*
X5976188Y-2853994D02*
G01*
X5899988Y-2853994D01*
X5976188Y-2345994D02*
G01*
X5976188Y-2853994D01*
X5899988Y-2345994D02*
G01*
X5976188Y-2345994D01*
X5823788Y-2345994D02*
G01*
X5899988Y-2345994D01*
X5823788Y-2853994D02*
G01*
X5823788Y-2345994D01*
X6199987Y-2853994D02*
G01*
X6199987Y-2879394D01*
X6199987Y-2345994D02*
G01*
X6199987Y-2320594D01*
X6199987Y-2853994D02*
G01*
X6123787Y-2853994D01*
X6276187Y-2853994D02*
G01*
X6199987Y-2853994D01*
X6276187Y-2345994D02*
G01*
X6276187Y-2853994D01*
X6199987Y-2345994D02*
G01*
X6276187Y-2345994D01*
X6123787Y-2345994D02*
G01*
X6199987Y-2345994D01*
X6123787Y-2853994D02*
G01*
X6123787Y-2345994D01*
X6499986Y-2853994D02*
G01*
X6499986Y-2879394D01*
X6499986Y-2345994D02*
G01*
X6499986Y-2320594D01*
X6499986Y-2853994D02*
G01*
X6423786Y-2853994D01*
X6576186Y-2853994D02*
G01*
X6499986Y-2853994D01*
X6576186Y-2345994D02*
G01*
X6576186Y-2853994D01*
X6499986Y-2345994D02*
G01*
X6576186Y-2345994D01*
X6423786Y-2345994D02*
G01*
X6499986Y-2345994D01*
X6423786Y-2853994D02*
G01*
X6423786Y-2345994D01*
X6799986Y-2853994D02*
G01*
X6799986Y-2879394D01*
X6799986Y-2345994D02*
G01*
X6799986Y-2320594D01*
X6799986Y-2853994D02*
G01*
X6723786Y-2853994D01*
X6876186Y-2853994D02*
G01*
X6799986Y-2853994D01*
X6876186Y-2345994D02*
G01*
X6876186Y-2853994D01*
X6799986Y-2345994D02*
G01*
X6876186Y-2345994D01*
X6723786Y-2345994D02*
G01*
X6799986Y-2345994D01*
X6723786Y-2853994D02*
G01*
X6723786Y-2345994D01*
X4114800Y-2345994D02*
G01*
X4114800Y-2320594D01*
X4114800Y-2853994D02*
G01*
X4114800Y-2879394D01*
X4114800Y-2345994D02*
G01*
X4191000Y-2345994D01*
X4038600Y-2345994D02*
G01*
X4114800Y-2345994D01*
X4038600Y-2853994D02*
G01*
X4038600Y-2345994D01*
X4114800Y-2853994D02*
G01*
X4038600Y-2853994D01*
X4191000Y-2853994D02*
G01*
X4114800Y-2853994D01*
X4191000Y-2345994D02*
G01*
X4191000Y-2853994D01*
X3848100Y-2345994D02*
G01*
X3848100Y-2320594D01*
X3848100Y-2853994D02*
G01*
X3848100Y-2879394D01*
X3848100Y-2345994D02*
G01*
X3924300Y-2345994D01*
X3771900Y-2345994D02*
G01*
X3848100Y-2345994D01*
X3771900Y-2853994D02*
G01*
X3771900Y-2345994D01*
X3848100Y-2853994D02*
G01*
X3771900Y-2853994D01*
X3924300Y-2853994D02*
G01*
X3848100Y-2853994D01*
X3924300Y-2345994D02*
G01*
X3924300Y-2853994D01*
X3581400Y-2345994D02*
G01*
X3581400Y-2320594D01*
X3581400Y-2853994D02*
G01*
X3581400Y-2879394D01*
X3581400Y-2345994D02*
G01*
X3657600Y-2345994D01*
X3505200Y-2345994D02*
G01*
X3581400Y-2345994D01*
X3505200Y-2853994D02*
G01*
X3505200Y-2345994D01*
X3581400Y-2853994D02*
G01*
X3505200Y-2853994D01*
X3657600Y-2853994D02*
G01*
X3581400Y-2853994D01*
X3657600Y-2345994D02*
G01*
X3657600Y-2853994D01*
X3314700Y-2345994D02*
G01*
X3314700Y-2320594D01*
X3314700Y-2853994D02*
G01*
X3314700Y-2879394D01*
X3314700Y-2345994D02*
G01*
X3390900Y-2345994D01*
X3238500Y-2345994D02*
G01*
X3314700Y-2345994D01*
X3238500Y-2853994D02*
G01*
X3238500Y-2345994D01*
X3314700Y-2853994D02*
G01*
X3238500Y-2853994D01*
X3390900Y-2853994D02*
G01*
X3314700Y-2853994D01*
X3390900Y-2345994D02*
G01*
X3390900Y-2853994D01*
X3035300Y-2345994D02*
G01*
X3035300Y-2320594D01*
X3035300Y-2853994D02*
G01*
X3035300Y-2879394D01*
X3035300Y-2345994D02*
G01*
X3111500Y-2345994D01*
X2959100Y-2345994D02*
G01*
X3035300Y-2345994D01*
X2959100Y-2853994D02*
G01*
X2959100Y-2345994D01*
X3035300Y-2853994D02*
G01*
X2959100Y-2853994D01*
X3111500Y-2853994D02*
G01*
X3035300Y-2853994D01*
X3111500Y-2345994D02*
G01*
X3111500Y-2853994D01*
X6852996Y-48996D02*
G01*
X6852996Y-302996D01*
X1760296Y-302996D01*
X1760296Y-48996D01*
X6852996Y-48996D01*
X6852996Y-1572996D02*
G01*
X6852996Y-1826996D01*
X1760296Y-1826996D01*
X1760296Y-1572996D01*
X6852996Y-1572996D01*
X6852996Y-48996D02*
G01*
X6852996Y-1826996D01*
X1760296Y-1826996D01*
X1760296Y-48996D01*
X6852996Y-48996D01*
X6852996Y-48996D02*
G01*
X6852996Y-302996D01*
X6598996Y-302996D01*
X6598996Y-48996D01*
X6852996Y-48996D01*
D23*
X1426971Y-1658112D02*
G01*
X1172971Y-1658112D01*
X1172971Y-642112D01*
X1426971Y-642112D01*
X1426971Y-832612D01*
D24*
X1426971Y-1658112D02*
G01*
X1426971Y-832612D01*
M02*
