G04 Layer: TopLayer*
G04 EasyEDA v6.5.5, 2022-07-08 19:06:44*
G04 04dbce6b86ab4aa5bbd08ae1767c2fe9,0a780afeddf54f0185a1b1f5ac8a31da,10*
G04 Gerber Generator version 0.2*
G04 Scale: 100 percent, Rotated: No, Reflected: No *
G04 Dimensions in millimeters *
G04 leading zeros omitted , absolute positions ,4 integer and 5 decimal *
%FSLAX45Y45*%
%MOMM*%

%ADD11C,0.4000*%
%ADD12C,1.0000*%
%ADD13C,0.8000*%
%ADD14C,3.5001*%
%ADD15R,1.4224X1.4224*%
%ADD16R,1.7000X1.7000*%
%ADD17C,1.7000*%
%ADD18C,1.5748*%
%ADD19R,1.5748X1.5748*%
%ADD20C,1.8796*%
%ADD21C,1.5240*%
%ADD22R,1.5240X1.5240*%

%LPD*%
D11*
X2915996Y-1699996D02*
G01*
X3740937Y-875055D01*
X5324957Y-875055D01*
X5507583Y-1057681D01*
X6662750Y-1057681D01*
X4693996Y-1699996D02*
G01*
X4174997Y-2218994D01*
X4114800Y-2218994D01*
X4693996Y-1699996D02*
G01*
X4866817Y-1872818D01*
X7049820Y-1872818D01*
X7068438Y-1854200D01*
X7499984Y-1854200D01*
X7626984Y-1727200D01*
X3857548Y-1098499D02*
G01*
X3550996Y-1405051D01*
X3550996Y-1945233D01*
X3448050Y-2048179D01*
X3448050Y-2291816D01*
X3698468Y-2542235D01*
X6543878Y-2542235D01*
X7123125Y-3121482D01*
X7680045Y-3121482D01*
X7760817Y-3040710D01*
X7760817Y-2877032D01*
X7626984Y-2743200D01*
X2407996Y-1699996D02*
G01*
X2407996Y-1853692D01*
X3342284Y-2787980D01*
X6306972Y-2787980D01*
X6499986Y-2980994D01*
X3314700Y-2218994D02*
G01*
X3276015Y-2218994D01*
X2788996Y-1731975D01*
X2788996Y-1657299D01*
X2408809Y-1277112D01*
X1299971Y-1277112D01*
X1299971Y-1277112D02*
G01*
X708583Y-1277112D01*
X697915Y-1287779D01*
X586739Y-1287779D02*
G01*
X697915Y-1287779D01*
X5709996Y-1699996D02*
G01*
X6190792Y-1219200D01*
X7372984Y-1219200D01*
X1299971Y-1531112D02*
G01*
X974267Y-1531112D01*
X941755Y-1498600D01*
X830579Y-1498600D02*
G01*
X941755Y-1498600D01*
D12*
X3035300Y-2980994D02*
G01*
X3314700Y-2980994D01*
X3848100Y-2980994D02*
G01*
X4114800Y-2980994D01*
X6799986Y-2218994D02*
G01*
X6499986Y-2218994D01*
X5899988Y-2218994D02*
G01*
X5599988Y-2218994D01*
X5599988Y-2218994D02*
G01*
X5299989Y-2218994D01*
X4699990Y-2218994D02*
G01*
X4999990Y-2218994D01*
X4999990Y-2218994D02*
G01*
X5299989Y-2218994D01*
X5899988Y-2218994D02*
G01*
X6199987Y-2218994D01*
X6199987Y-2218994D02*
G01*
X6499986Y-2218994D01*
X3314700Y-2980994D02*
G01*
X3581400Y-2980994D01*
X3581400Y-2980994D02*
G01*
X3848100Y-2980994D01*
D11*
X5201996Y-1699996D02*
G01*
X5318480Y-1816480D01*
X7008850Y-1816480D01*
X7098131Y-1727200D01*
X7372984Y-1727200D01*
X4947996Y-1699996D02*
G01*
X5483961Y-1164031D01*
X6951370Y-1164031D01*
X7016368Y-1099032D01*
X7425054Y-1099032D01*
X7499984Y-1173962D01*
X7499984Y-1346200D01*
X7626984Y-1473200D01*
X2153996Y-1699996D02*
G01*
X2030577Y-1576578D01*
X1847214Y-1576578D01*
X1776907Y-1646885D01*
X1776907Y-2271903D01*
X2617977Y-3112973D01*
X6068009Y-3112973D01*
X6199987Y-2980994D01*
X5201996Y-175996D02*
G01*
X5356097Y-330098D01*
X7678674Y-330098D01*
X7820583Y-472008D01*
X7820583Y-2471445D01*
X7675956Y-2616072D01*
X7500111Y-2616072D01*
X7372984Y-2743200D01*
X6799986Y-2980994D02*
G01*
X6526936Y-2707944D01*
X3340252Y-2707944D01*
X2661996Y-2029688D01*
X2661996Y-1699996D01*
X1899996Y-1699996D02*
G01*
X2063191Y-1863191D01*
X2265349Y-1863191D01*
X3245307Y-2843148D01*
X5762142Y-2843148D01*
X5899988Y-2980994D01*
D12*
X7626984Y-203200D02*
G01*
X7372984Y-203200D01*
X1151153Y-769112D02*
G01*
X859561Y-477520D01*
X287020Y-477520D01*
X1299971Y-769112D02*
G01*
X1151153Y-769112D01*
X2153996Y-175996D02*
G01*
X1899996Y-175996D01*
X2153996Y-175996D02*
G01*
X2709341Y-731342D01*
X6350812Y-731342D01*
X6471996Y-852525D01*
D11*
X4738725Y-953211D02*
G01*
X4692040Y-953211D01*
X4058996Y-1586255D01*
X4058996Y-1730857D01*
X3714750Y-2075103D01*
X3714750Y-2274112D01*
X3856151Y-2415514D01*
X6791299Y-2415514D01*
X7372984Y-2997200D01*
X5963996Y-1699996D02*
G01*
X6362115Y-1301877D01*
X7043165Y-1301877D01*
X4185996Y-175996D02*
G01*
X4413808Y-403809D01*
X7075703Y-403809D01*
X7262952Y-591057D01*
X7676743Y-591057D01*
X7752105Y-666419D01*
X7752105Y-2364079D01*
X7626984Y-2489200D01*
X4629531Y-1121994D02*
G01*
X4312996Y-1438529D01*
X4312996Y-1734159D01*
X3981450Y-2065705D01*
X3981450Y-2277541D01*
X4052061Y-2348153D01*
X6801942Y-2348153D01*
X7323988Y-2870200D01*
X7499984Y-2870200D01*
X7626984Y-2997200D01*
X5455996Y-175996D02*
G01*
X5571718Y-60274D01*
X7661020Y-60274D01*
X3169996Y-175996D02*
G01*
X3616731Y-622731D01*
X6533692Y-622731D01*
X6622161Y-711200D01*
X7372984Y-711200D01*
X5595035Y-2020417D02*
G01*
X6972985Y-2020417D01*
X7307935Y-2355367D01*
X7506817Y-2355367D01*
X7626984Y-2235200D01*
X3931996Y-175996D02*
G01*
X4301693Y-545693D01*
X5960719Y-545693D01*
D14*
G01*
X287020Y-477520D03*
G01*
X287020Y-1833879D03*
G01*
X205739Y-1158239D03*
D15*
G01*
X586739Y-1028700D03*
G01*
X586739Y-1287779D03*
G01*
X586739Y-1498600D03*
G01*
X586739Y-817879D03*
G01*
X835660Y-817879D03*
G01*
X830579Y-1498600D03*
D16*
G01*
X7372984Y-203200D03*
D17*
G01*
X7626984Y-203200D03*
G01*
X7372984Y-457200D03*
G01*
X7626984Y-457200D03*
G01*
X7372984Y-711200D03*
G01*
X7626984Y-711200D03*
G01*
X7372984Y-965200D03*
G01*
X7626984Y-965200D03*
G01*
X7372984Y-1219200D03*
G01*
X7626984Y-1219200D03*
G01*
X7372984Y-1473200D03*
G01*
X7626984Y-1473200D03*
G01*
X7372984Y-1727200D03*
G01*
X7626984Y-1727200D03*
G01*
X7372984Y-1981200D03*
G01*
X7626984Y-1981200D03*
G01*
X7372984Y-2235200D03*
G01*
X7626984Y-2235200D03*
G01*
X7372984Y-2489200D03*
G01*
X7626984Y-2489200D03*
G01*
X7372984Y-2743200D03*
G01*
X7626984Y-2743200D03*
G01*
X7372984Y-2997200D03*
G01*
X7626984Y-2997200D03*
D18*
G01*
X2565400Y-2882900D03*
G01*
X2565400Y-2628900D03*
D19*
G01*
X2565400Y-2374900D03*
D20*
G01*
X4699990Y-2980994D03*
G01*
X4699990Y-2218994D03*
G01*
X4999990Y-2980994D03*
G01*
X4999990Y-2218994D03*
G01*
X5299989Y-2980994D03*
G01*
X5299989Y-2218994D03*
G01*
X5599988Y-2980994D03*
G01*
X5599988Y-2218994D03*
G01*
X5899988Y-2980994D03*
G01*
X5899988Y-2218994D03*
G01*
X6199987Y-2980994D03*
G01*
X6199987Y-2218994D03*
G01*
X6499986Y-2980994D03*
G01*
X6499986Y-2218994D03*
G01*
X6799986Y-2980994D03*
G01*
X6799986Y-2218994D03*
G01*
X4114800Y-2218994D03*
G01*
X4114800Y-2980994D03*
G01*
X3848100Y-2218994D03*
G01*
X3848100Y-2980994D03*
G01*
X3581400Y-2218994D03*
G01*
X3581400Y-2980994D03*
G01*
X3314700Y-2218994D03*
G01*
X3314700Y-2980994D03*
G01*
X3035300Y-2218994D03*
G01*
X3035300Y-2980994D03*
D21*
G01*
X1899996Y-1699996D03*
G01*
X2153996Y-1699996D03*
G01*
X2407996Y-1699996D03*
G01*
X2661996Y-1699996D03*
G01*
X2915996Y-1699996D03*
G01*
X3169996Y-1699996D03*
G01*
X3423996Y-1699996D03*
G01*
X3677996Y-1699996D03*
G01*
X3931996Y-1699996D03*
G01*
X4185996Y-1699996D03*
G01*
X4439996Y-1699996D03*
G01*
X4693996Y-1699996D03*
G01*
X4947996Y-1699996D03*
G01*
X5201996Y-1699996D03*
G01*
X5455996Y-1699996D03*
G01*
X5709996Y-1699996D03*
G01*
X5963996Y-1699996D03*
G01*
X6217996Y-1699996D03*
G01*
X6471996Y-1699996D03*
G01*
X6725996Y-1699996D03*
G01*
X1899996Y-175996D03*
G01*
X2153996Y-175996D03*
G01*
X2407996Y-175996D03*
G01*
X2661996Y-175996D03*
G01*
X2915996Y-175996D03*
G01*
X3169996Y-175996D03*
G01*
X3423996Y-175996D03*
G01*
X3677996Y-175996D03*
G01*
X3931996Y-175996D03*
G01*
X4185996Y-175996D03*
G01*
X4439996Y-175996D03*
G01*
X4693996Y-175996D03*
G01*
X4947996Y-175996D03*
G01*
X5201996Y-175996D03*
G01*
X5455996Y-175996D03*
G01*
X5709996Y-175996D03*
G01*
X5963996Y-175996D03*
G01*
X6217996Y-175996D03*
G01*
X6471996Y-175996D03*
D22*
G01*
X6725996Y-175996D03*
D19*
G01*
X1299971Y-769112D03*
D18*
G01*
X1299971Y-1023112D03*
G01*
X1299971Y-1277112D03*
G01*
X1299971Y-1531112D03*
D13*
G01*
X5595035Y-2020417D03*
G01*
X5960719Y-545693D03*
G01*
X7661020Y-60274D03*
G01*
X4629531Y-1121994D03*
G01*
X7043165Y-1301877D03*
G01*
X4738725Y-953211D03*
G01*
X6471996Y-852525D03*
G01*
X3857548Y-1098499D03*
G01*
X6662750Y-1057681D03*
M02*
